<mxfile host="app.diagrams.net" modified="2024-01-28T16:05:14.024Z" agent="Mozilla/5.0 (Windows NT 10.0; Win64; x64) AppleWebKit/537.36 (KHTML, like Gecko) Chrome/120.0.0.0 Safari/537.36" etag="rHzDTp94C48wnP1qpfza" version="23.0.2" type="google" pages="5">
  <diagram name="user case " id="qxaeOXRIWwVSj8D06jVs">
    <mxGraphModel dx="1615" dy="803" grid="1" gridSize="10" guides="1" tooltips="1" connect="1" arrows="1" fold="1" page="1" pageScale="1" pageWidth="850" pageHeight="1100" math="0" shadow="0">
      <root>
        <mxCell id="0" />
        <mxCell id="1" parent="0" />
        <mxCell id="cQHYP8qSmKtwm99t56ml-1" value="User&lt;br&gt;" style="shape=umlActor;verticalLabelPosition=bottom;verticalAlign=top;html=1;outlineConnect=0;fontSize=16;" vertex="1" parent="1">
          <mxGeometry x="60" y="370" width="70" height="110" as="geometry" />
        </mxCell>
        <mxCell id="cQHYP8qSmKtwm99t56ml-2" value="Login Page&amp;nbsp;" style="ellipse;whiteSpace=wrap;html=1;fontSize=16;" vertex="1" parent="1">
          <mxGeometry x="260" y="250" width="120" height="60" as="geometry" />
        </mxCell>
        <mxCell id="cQHYP8qSmKtwm99t56ml-3" value="books view/select" style="ellipse;whiteSpace=wrap;html=1;fontSize=16;" vertex="1" parent="1">
          <mxGeometry x="260" y="350" width="120" height="60" as="geometry" />
        </mxCell>
        <mxCell id="cQHYP8qSmKtwm99t56ml-5" value="Registration&amp;nbsp;" style="ellipse;whiteSpace=wrap;html=1;fontSize=16;" vertex="1" parent="1">
          <mxGeometry x="270" y="150" width="120" height="60" as="geometry" />
        </mxCell>
        <mxCell id="cQHYP8qSmKtwm99t56ml-7" value="cart page" style="ellipse;whiteSpace=wrap;html=1;fontSize=16;" vertex="1" parent="1">
          <mxGeometry x="270" y="440" width="120" height="80" as="geometry" />
        </mxCell>
        <mxCell id="cQHYP8qSmKtwm99t56ml-9" value="buy options/ order details" style="ellipse;whiteSpace=wrap;html=1;fontSize=16;" vertex="1" parent="1">
          <mxGeometry x="260" y="560" width="140" height="80" as="geometry" />
        </mxCell>
        <mxCell id="cQHYP8qSmKtwm99t56ml-10" value="" style="endArrow=classic;html=1;rounded=0;fontSize=12;startSize=8;endSize=8;curved=1;exitX=1;exitY=0.3333333333333333;exitDx=0;exitDy=0;exitPerimeter=0;entryX=0;entryY=0.5;entryDx=0;entryDy=0;" edge="1" parent="1" source="cQHYP8qSmKtwm99t56ml-1" target="cQHYP8qSmKtwm99t56ml-5">
          <mxGeometry width="50" height="50" relative="1" as="geometry">
            <mxPoint x="240" y="600" as="sourcePoint" />
            <mxPoint x="290" y="550" as="targetPoint" />
          </mxGeometry>
        </mxCell>
        <mxCell id="cQHYP8qSmKtwm99t56ml-11" value="" style="endArrow=classic;html=1;rounded=0;fontSize=12;startSize=8;endSize=8;curved=1;entryX=0;entryY=0.5;entryDx=0;entryDy=0;" edge="1" parent="1" target="cQHYP8qSmKtwm99t56ml-2">
          <mxGeometry width="50" height="50" relative="1" as="geometry">
            <mxPoint x="130" y="410" as="sourcePoint" />
            <mxPoint x="290" y="550" as="targetPoint" />
          </mxGeometry>
        </mxCell>
        <mxCell id="cQHYP8qSmKtwm99t56ml-12" value="" style="endArrow=classic;html=1;rounded=0;fontSize=12;startSize=8;endSize=8;curved=1;entryX=0;entryY=0.5;entryDx=0;entryDy=0;" edge="1" parent="1" target="cQHYP8qSmKtwm99t56ml-3">
          <mxGeometry width="50" height="50" relative="1" as="geometry">
            <mxPoint x="130" y="410" as="sourcePoint" />
            <mxPoint x="280" y="500" as="targetPoint" />
          </mxGeometry>
        </mxCell>
        <mxCell id="cQHYP8qSmKtwm99t56ml-15" value="" style="endArrow=classic;html=1;rounded=0;fontSize=12;startSize=8;endSize=8;curved=1;entryX=0;entryY=0.5;entryDx=0;entryDy=0;" edge="1" parent="1" target="cQHYP8qSmKtwm99t56ml-7">
          <mxGeometry width="50" height="50" relative="1" as="geometry">
            <mxPoint x="130" y="410" as="sourcePoint" />
            <mxPoint x="280" y="370" as="targetPoint" />
            <Array as="points">
              <mxPoint x="170" y="630" />
            </Array>
          </mxGeometry>
        </mxCell>
        <mxCell id="cQHYP8qSmKtwm99t56ml-17" value="" style="endArrow=classic;html=1;rounded=0;fontSize=12;startSize=8;endSize=8;curved=1;entryX=0;entryY=0.5;entryDx=0;entryDy=0;" edge="1" parent="1" target="cQHYP8qSmKtwm99t56ml-9">
          <mxGeometry width="50" height="50" relative="1" as="geometry">
            <mxPoint x="130" y="410" as="sourcePoint" />
            <mxPoint x="320" y="380" as="targetPoint" />
            <Array as="points">
              <mxPoint x="150" y="720" />
            </Array>
          </mxGeometry>
        </mxCell>
        <mxCell id="cQHYP8qSmKtwm99t56ml-20" value="queryand feedback" style="ellipse;whiteSpace=wrap;html=1;" vertex="1" parent="1">
          <mxGeometry x="270" y="680" width="120" height="50" as="geometry" />
        </mxCell>
        <mxCell id="cQHYP8qSmKtwm99t56ml-21" value="" style="endArrow=classic;html=1;rounded=0;exitX=0;exitY=1;exitDx=0;exitDy=0;exitPerimeter=0;entryX=0;entryY=0.5;entryDx=0;entryDy=0;" edge="1" parent="1" source="cQHYP8qSmKtwm99t56ml-1" target="cQHYP8qSmKtwm99t56ml-20">
          <mxGeometry width="50" height="50" relative="1" as="geometry">
            <mxPoint x="360" y="840" as="sourcePoint" />
            <mxPoint x="410" y="790" as="targetPoint" />
            <Array as="points">
              <mxPoint x="140" y="650" />
            </Array>
          </mxGeometry>
        </mxCell>
      </root>
    </mxGraphModel>
  </diagram>
  <diagram id="SgECoKD1I7QHSmbnuy57" name="admin case">
    <mxGraphModel dx="1313" dy="653" grid="1" gridSize="10" guides="1" tooltips="1" connect="1" arrows="1" fold="1" page="1" pageScale="1" pageWidth="850" pageHeight="1100" math="0" shadow="0">
      <root>
        <mxCell id="0" />
        <mxCell id="1" parent="0" />
        <mxCell id="FR5zJX_wTx5WY6ay74M1-1" value="ADMIN" style="shape=umlActor;verticalLabelPosition=bottom;verticalAlign=top;html=1;outlineConnect=0;fontSize=16;" vertex="1" parent="1">
          <mxGeometry x="60" y="370" width="70" height="110" as="geometry" />
        </mxCell>
        <mxCell id="FR5zJX_wTx5WY6ay74M1-2" value="books manage" style="ellipse;whiteSpace=wrap;html=1;fontSize=16;" vertex="1" parent="1">
          <mxGeometry x="300" y="270" width="120" height="60" as="geometry" />
        </mxCell>
        <mxCell id="FR5zJX_wTx5WY6ay74M1-3" value="orders view" style="ellipse;whiteSpace=wrap;html=1;fontSize=16;" vertex="1" parent="1">
          <mxGeometry x="300" y="360" width="120" height="60" as="geometry" />
        </mxCell>
        <mxCell id="FR5zJX_wTx5WY6ay74M1-4" value="feedback manage" style="ellipse;whiteSpace=wrap;html=1;fontSize=16;" vertex="1" parent="1">
          <mxGeometry x="290" y="480" width="120" height="60" as="geometry" />
        </mxCell>
        <mxCell id="FR5zJX_wTx5WY6ay74M1-5" value="View/ update users" style="ellipse;whiteSpace=wrap;html=1;fontSize=16;" vertex="1" parent="1">
          <mxGeometry x="305" y="160" width="120" height="60" as="geometry" />
        </mxCell>
        <mxCell id="FR5zJX_wTx5WY6ay74M1-10" value="" style="endArrow=classic;html=1;rounded=0;fontSize=12;startSize=8;endSize=8;curved=1;exitX=1;exitY=0.3333333333333333;exitDx=0;exitDy=0;exitPerimeter=0;entryX=0;entryY=0.5;entryDx=0;entryDy=0;" edge="1" parent="1" source="FR5zJX_wTx5WY6ay74M1-1" target="FR5zJX_wTx5WY6ay74M1-5">
          <mxGeometry width="50" height="50" relative="1" as="geometry">
            <mxPoint x="240" y="600" as="sourcePoint" />
            <mxPoint x="290" y="550" as="targetPoint" />
          </mxGeometry>
        </mxCell>
        <mxCell id="FR5zJX_wTx5WY6ay74M1-11" value="" style="endArrow=classic;html=1;rounded=0;fontSize=12;startSize=8;endSize=8;curved=1;entryX=0;entryY=0.5;entryDx=0;entryDy=0;" edge="1" parent="1" target="FR5zJX_wTx5WY6ay74M1-2">
          <mxGeometry width="50" height="50" relative="1" as="geometry">
            <mxPoint x="130" y="410" as="sourcePoint" />
            <mxPoint x="290" y="550" as="targetPoint" />
          </mxGeometry>
        </mxCell>
        <mxCell id="FR5zJX_wTx5WY6ay74M1-12" value="" style="endArrow=classic;html=1;rounded=0;fontSize=12;startSize=8;endSize=8;curved=1;entryX=0;entryY=0.5;entryDx=0;entryDy=0;" edge="1" parent="1" target="FR5zJX_wTx5WY6ay74M1-3">
          <mxGeometry width="50" height="50" relative="1" as="geometry">
            <mxPoint x="130" y="410" as="sourcePoint" />
            <mxPoint x="280" y="500" as="targetPoint" />
          </mxGeometry>
        </mxCell>
        <mxCell id="FR5zJX_wTx5WY6ay74M1-13" value="" style="endArrow=classic;html=1;rounded=0;fontSize=12;startSize=8;endSize=8;curved=1;entryX=0.083;entryY=0.5;entryDx=0;entryDy=0;entryPerimeter=0;" edge="1" parent="1" target="FR5zJX_wTx5WY6ay74M1-4">
          <mxGeometry width="50" height="50" relative="1" as="geometry">
            <mxPoint x="130" y="410" as="sourcePoint" />
            <mxPoint x="280" y="500" as="targetPoint" />
            <Array as="points">
              <mxPoint x="170" y="470" />
            </Array>
          </mxGeometry>
        </mxCell>
      </root>
    </mxGraphModel>
  </diagram>
  <diagram id="h7kug4JO-qbkbX6gM39D" name="0 level">
    <mxGraphModel dx="2600" dy="1970" grid="1" gridSize="10" guides="1" tooltips="1" connect="1" arrows="1" fold="1" page="1" pageScale="1" pageWidth="850" pageHeight="1100" math="0" shadow="0">
      <root>
        <mxCell id="0" />
        <mxCell id="1" parent="0" />
        <mxCell id="n3OnnETdSlyoOCRthelr-127" value="Database&amp;nbsp;" style="ellipse;whiteSpace=wrap;html=1;fontSize=16;" vertex="1" parent="1">
          <mxGeometry x="-100" y="-600" width="170" height="100" as="geometry" />
        </mxCell>
        <mxCell id="n3OnnETdSlyoOCRthelr-128" value="" style="endArrow=classic;html=1;rounded=0;fontSize=12;startSize=8;endSize=8;curved=1;exitX=0.5;exitY=0;exitDx=0;exitDy=0;entryX=0.5;entryY=0;entryDx=0;entryDy=0;" edge="1" parent="1" source="n3OnnETdSlyoOCRthelr-134" target="n3OnnETdSlyoOCRthelr-127">
          <mxGeometry width="50" height="50" relative="1" as="geometry">
            <mxPoint x="-485" y="-610" as="sourcePoint" />
            <mxPoint x="-290" y="-440" as="targetPoint" />
            <Array as="points">
              <mxPoint x="-230" y="-710" />
            </Array>
          </mxGeometry>
        </mxCell>
        <mxCell id="n3OnnETdSlyoOCRthelr-129" value="Registration&amp;nbsp;" style="edgeLabel;html=1;align=center;verticalAlign=middle;resizable=0;points=[];fontSize=16;" connectable="0" vertex="1" parent="n3OnnETdSlyoOCRthelr-128">
          <mxGeometry x="-0.1506" y="-39" relative="1" as="geometry">
            <mxPoint x="-1" as="offset" />
          </mxGeometry>
        </mxCell>
        <mxCell id="n3OnnETdSlyoOCRthelr-130" value="" style="endArrow=classic;html=1;rounded=0;fontSize=12;startSize=8;endSize=8;curved=1;exitX=0.5;exitY=1;exitDx=0;exitDy=0;entryX=0.5;entryY=1;entryDx=0;entryDy=0;" edge="1" parent="1" source="n3OnnETdSlyoOCRthelr-127" target="n3OnnETdSlyoOCRthelr-134">
          <mxGeometry width="50" height="50" relative="1" as="geometry">
            <mxPoint x="-485" y="-530" as="sourcePoint" />
            <mxPoint x="-420" y="-330" as="targetPoint" />
            <Array as="points">
              <mxPoint x="-270" y="-440" />
            </Array>
          </mxGeometry>
        </mxCell>
        <mxCell id="n3OnnETdSlyoOCRthelr-131" value="Validation/Authentication&amp;nbsp;" style="edgeLabel;html=1;align=center;verticalAlign=middle;resizable=0;points=[];fontSize=16;" connectable="0" vertex="1" parent="n3OnnETdSlyoOCRthelr-130">
          <mxGeometry x="-0.0081" y="18" relative="1" as="geometry">
            <mxPoint as="offset" />
          </mxGeometry>
        </mxCell>
        <mxCell id="n3OnnETdSlyoOCRthelr-132" value="" style="endArrow=classic;html=1;rounded=0;fontSize=12;startSize=8;endSize=8;curved=1;exitX=0.75;exitY=1;exitDx=0;exitDy=0;entryX=1;entryY=1;entryDx=0;entryDy=0;" edge="1" parent="1" source="n3OnnETdSlyoOCRthelr-135" target="n3OnnETdSlyoOCRthelr-127">
          <mxGeometry width="50" height="50" relative="1" as="geometry">
            <mxPoint x="409.9999999999998" y="-515" as="sourcePoint" />
            <mxPoint x="160" y="-340" as="targetPoint" />
            <Array as="points">
              <mxPoint x="240" y="-410" />
            </Array>
          </mxGeometry>
        </mxCell>
        <mxCell id="n3OnnETdSlyoOCRthelr-133" value="Response&amp;nbsp;" style="edgeLabel;html=1;align=center;verticalAlign=middle;resizable=0;points=[];fontSize=16;" connectable="0" vertex="1" parent="n3OnnETdSlyoOCRthelr-132">
          <mxGeometry x="0.1301" y="-22" relative="1" as="geometry">
            <mxPoint x="-1" as="offset" />
          </mxGeometry>
        </mxCell>
        <mxCell id="n3OnnETdSlyoOCRthelr-134" value="User/ Client&amp;nbsp;" style="rounded=0;whiteSpace=wrap;html=1;fontSize=16;" vertex="1" parent="1">
          <mxGeometry x="-550" y="-600" width="120" height="60" as="geometry" />
        </mxCell>
        <mxCell id="n3OnnETdSlyoOCRthelr-135" value="Admin&amp;nbsp;" style="rounded=0;whiteSpace=wrap;html=1;fontSize=16;" vertex="1" parent="1">
          <mxGeometry x="300" y="-610" width="140" height="80" as="geometry" />
        </mxCell>
        <mxCell id="n3OnnETdSlyoOCRthelr-136" value="" style="endArrow=classic;html=1;rounded=0;fontSize=12;startSize=8;endSize=8;curved=1;exitX=1;exitY=0;exitDx=0;exitDy=0;entryX=0.5;entryY=0;entryDx=0;entryDy=0;" edge="1" parent="1" source="n3OnnETdSlyoOCRthelr-127" target="n3OnnETdSlyoOCRthelr-135">
          <mxGeometry width="50" height="50" relative="1" as="geometry">
            <mxPoint x="140" y="-310" as="sourcePoint" />
            <mxPoint x="390" y="-610" as="targetPoint" />
            <Array as="points">
              <mxPoint x="140" y="-630" />
              <mxPoint x="210" y="-640" />
            </Array>
          </mxGeometry>
        </mxCell>
        <mxCell id="n3OnnETdSlyoOCRthelr-137" value="User details&amp;nbsp;" style="edgeLabel;html=1;align=center;verticalAlign=middle;resizable=0;points=[];fontSize=16;" connectable="0" vertex="1" parent="n3OnnETdSlyoOCRthelr-136">
          <mxGeometry x="-0.1847" y="13" relative="1" as="geometry">
            <mxPoint as="offset" />
          </mxGeometry>
        </mxCell>
        <mxCell id="n3OnnETdSlyoOCRthelr-138" value="User" style="rounded=0;whiteSpace=wrap;html=1;fontSize=16;" vertex="1" parent="1">
          <mxGeometry x="-540" y="-320" width="120" height="60" as="geometry" />
        </mxCell>
        <mxCell id="n3OnnETdSlyoOCRthelr-139" value="Database&amp;nbsp;" style="ellipse;whiteSpace=wrap;html=1;fontSize=16;" vertex="1" parent="1">
          <mxGeometry x="-50" y="-330" width="120" height="80" as="geometry" />
        </mxCell>
        <mxCell id="n3OnnETdSlyoOCRthelr-140" value="Admin&amp;nbsp;" style="rounded=0;whiteSpace=wrap;html=1;fontSize=16;" vertex="1" parent="1">
          <mxGeometry x="330" y="-320" width="120" height="60" as="geometry" />
        </mxCell>
        <mxCell id="n3OnnETdSlyoOCRthelr-141" value="" style="endArrow=classic;html=1;rounded=0;fontSize=12;startSize=8;endSize=8;curved=1;exitX=0.75;exitY=0;exitDx=0;exitDy=0;entryX=0.5;entryY=0;entryDx=0;entryDy=0;" edge="1" parent="1" source="n3OnnETdSlyoOCRthelr-138" target="n3OnnETdSlyoOCRthelr-139">
          <mxGeometry width="50" height="50" relative="1" as="geometry">
            <mxPoint x="-220" y="-200" as="sourcePoint" />
            <mxPoint x="-170" y="-250" as="targetPoint" />
            <Array as="points">
              <mxPoint x="-240" y="-350" />
            </Array>
          </mxGeometry>
        </mxCell>
        <mxCell id="n3OnnETdSlyoOCRthelr-142" value="books details&amp;nbsp;" style="edgeLabel;html=1;align=center;verticalAlign=middle;resizable=0;points=[];fontSize=16;" connectable="0" vertex="1" parent="n3OnnETdSlyoOCRthelr-141">
          <mxGeometry x="-0.1651" y="-19" relative="1" as="geometry">
            <mxPoint x="-1" as="offset" />
          </mxGeometry>
        </mxCell>
        <mxCell id="n3OnnETdSlyoOCRthelr-143" value="" style="endArrow=classic;html=1;rounded=0;fontSize=12;startSize=8;endSize=8;curved=1;entryX=0.5;entryY=1;entryDx=0;entryDy=0;exitX=0.5;exitY=1;exitDx=0;exitDy=0;" edge="1" parent="1" source="n3OnnETdSlyoOCRthelr-139" target="n3OnnETdSlyoOCRthelr-138">
          <mxGeometry width="50" height="50" relative="1" as="geometry">
            <mxPoint x="-240" y="-70" as="sourcePoint" />
            <mxPoint x="-140" y="-350" as="targetPoint" />
            <Array as="points">
              <mxPoint x="-240" y="-190" />
            </Array>
          </mxGeometry>
        </mxCell>
        <mxCell id="n3OnnETdSlyoOCRthelr-144" value="Information of product&amp;nbsp;" style="edgeLabel;html=1;align=center;verticalAlign=middle;resizable=0;points=[];fontSize=16;" connectable="0" vertex="1" parent="n3OnnETdSlyoOCRthelr-143">
          <mxGeometry x="0.2543" y="-12" relative="1" as="geometry">
            <mxPoint as="offset" />
          </mxGeometry>
        </mxCell>
        <mxCell id="n3OnnETdSlyoOCRthelr-145" value="" style="endArrow=classic;html=1;rounded=0;fontSize=12;startSize=8;endSize=8;curved=1;exitX=1;exitY=0;exitDx=0;exitDy=0;entryX=0.75;entryY=0;entryDx=0;entryDy=0;" edge="1" parent="1" source="n3OnnETdSlyoOCRthelr-139" target="n3OnnETdSlyoOCRthelr-140">
          <mxGeometry width="50" height="50" relative="1" as="geometry">
            <mxPoint x="60" y="-340" as="sourcePoint" />
            <mxPoint x="110" y="-390" as="targetPoint" />
            <Array as="points">
              <mxPoint x="140" y="-380" />
            </Array>
          </mxGeometry>
        </mxCell>
        <mxCell id="n3OnnETdSlyoOCRthelr-146" value="Request&amp;nbsp;" style="edgeLabel;html=1;align=center;verticalAlign=middle;resizable=0;points=[];fontSize=16;" connectable="0" vertex="1" parent="n3OnnETdSlyoOCRthelr-145">
          <mxGeometry x="-0.0968" y="-33" relative="1" as="geometry">
            <mxPoint as="offset" />
          </mxGeometry>
        </mxCell>
        <mxCell id="n3OnnETdSlyoOCRthelr-147" value="" style="endArrow=classic;html=1;rounded=0;fontSize=12;startSize=8;endSize=8;curved=1;entryX=1;entryY=1;entryDx=0;entryDy=0;exitX=0.5;exitY=1;exitDx=0;exitDy=0;" edge="1" parent="1" source="n3OnnETdSlyoOCRthelr-140" target="n3OnnETdSlyoOCRthelr-139">
          <mxGeometry width="50" height="50" relative="1" as="geometry">
            <mxPoint x="380" y="-220" as="sourcePoint" />
            <mxPoint x="110" y="-390" as="targetPoint" />
            <Array as="points">
              <mxPoint x="220" y="-210" />
            </Array>
          </mxGeometry>
        </mxCell>
        <mxCell id="n3OnnETdSlyoOCRthelr-148" value="Respond&amp;nbsp;" style="edgeLabel;html=1;align=center;verticalAlign=middle;resizable=0;points=[];fontSize=16;" connectable="0" vertex="1" parent="n3OnnETdSlyoOCRthelr-147">
          <mxGeometry x="0.3003" y="5" relative="1" as="geometry">
            <mxPoint x="1" as="offset" />
          </mxGeometry>
        </mxCell>
        <mxCell id="n3OnnETdSlyoOCRthelr-149" value="User&amp;nbsp;" style="rounded=0;whiteSpace=wrap;html=1;fontSize=16;" vertex="1" parent="1">
          <mxGeometry x="-540" y="-10" width="120" height="60" as="geometry" />
        </mxCell>
        <mxCell id="n3OnnETdSlyoOCRthelr-150" value="Database&amp;nbsp;" style="ellipse;whiteSpace=wrap;html=1;fontSize=16;" vertex="1" parent="1">
          <mxGeometry x="-60" y="-20" width="120" height="80" as="geometry" />
        </mxCell>
        <mxCell id="n3OnnETdSlyoOCRthelr-151" value="Admin&amp;nbsp;" style="rounded=0;whiteSpace=wrap;html=1;fontSize=16;" vertex="1" parent="1">
          <mxGeometry x="340" y="-10" width="120" height="60" as="geometry" />
        </mxCell>
        <mxCell id="n3OnnETdSlyoOCRthelr-152" value="" style="endArrow=classic;html=1;rounded=0;fontSize=12;startSize=8;endSize=8;curved=1;exitX=0.5;exitY=0;exitDx=0;exitDy=0;entryX=0.5;entryY=0;entryDx=0;entryDy=0;" edge="1" parent="1" source="n3OnnETdSlyoOCRthelr-149" target="n3OnnETdSlyoOCRthelr-150">
          <mxGeometry width="50" height="50" relative="1" as="geometry">
            <mxPoint x="-230" as="sourcePoint" />
            <mxPoint x="-180" y="-50" as="targetPoint" />
            <Array as="points">
              <mxPoint x="-240" y="-80" />
            </Array>
          </mxGeometry>
        </mxCell>
        <mxCell id="n3OnnETdSlyoOCRthelr-153" value="Material availability&amp;nbsp;" style="edgeLabel;html=1;align=center;verticalAlign=middle;resizable=0;points=[];fontSize=16;" connectable="0" vertex="1" parent="n3OnnETdSlyoOCRthelr-152">
          <mxGeometry x="-0.043" y="-1" relative="1" as="geometry">
            <mxPoint as="offset" />
          </mxGeometry>
        </mxCell>
        <mxCell id="n3OnnETdSlyoOCRthelr-154" value="" style="endArrow=classic;html=1;rounded=0;fontSize=12;startSize=8;endSize=8;curved=1;entryX=0.5;entryY=1;entryDx=0;entryDy=0;exitX=0.5;exitY=1;exitDx=0;exitDy=0;" edge="1" parent="1" source="n3OnnETdSlyoOCRthelr-150" target="n3OnnETdSlyoOCRthelr-149">
          <mxGeometry width="50" height="50" relative="1" as="geometry">
            <mxPoint x="-200" as="sourcePoint" />
            <mxPoint x="-150" y="-50" as="targetPoint" />
            <Array as="points">
              <mxPoint x="-260" y="100" />
            </Array>
          </mxGeometry>
        </mxCell>
        <mxCell id="n3OnnETdSlyoOCRthelr-155" value="Status&amp;nbsp;" style="edgeLabel;html=1;align=center;verticalAlign=middle;resizable=0;points=[];fontSize=16;" connectable="0" vertex="1" parent="n3OnnETdSlyoOCRthelr-154">
          <mxGeometry x="0.0154" y="-26" relative="1" as="geometry">
            <mxPoint as="offset" />
          </mxGeometry>
        </mxCell>
        <mxCell id="n3OnnETdSlyoOCRthelr-156" value="" style="endArrow=classic;html=1;rounded=0;fontSize=12;startSize=8;endSize=8;curved=1;exitX=1;exitY=0;exitDx=0;exitDy=0;entryX=0.5;entryY=0;entryDx=0;entryDy=0;" edge="1" parent="1" source="n3OnnETdSlyoOCRthelr-150" target="n3OnnETdSlyoOCRthelr-151">
          <mxGeometry width="50" height="50" relative="1" as="geometry">
            <mxPoint x="70" as="sourcePoint" />
            <mxPoint x="270" y="-50" as="targetPoint" />
            <Array as="points">
              <mxPoint x="200" y="-60" />
            </Array>
          </mxGeometry>
        </mxCell>
        <mxCell id="n3OnnETdSlyoOCRthelr-157" value="Enquiry&amp;nbsp;" style="edgeLabel;html=1;align=center;verticalAlign=middle;resizable=0;points=[];fontSize=16;" connectable="0" vertex="1" parent="n3OnnETdSlyoOCRthelr-156">
          <mxGeometry x="-0.1697" y="-11" relative="1" as="geometry">
            <mxPoint x="1" as="offset" />
          </mxGeometry>
        </mxCell>
        <mxCell id="n3OnnETdSlyoOCRthelr-158" value="Updates&amp;nbsp;" style="endArrow=classic;html=1;rounded=0;fontSize=12;startSize=8;endSize=8;curved=1;exitX=0.5;exitY=1;exitDx=0;exitDy=0;entryX=1;entryY=1;entryDx=0;entryDy=0;" edge="1" parent="1" source="n3OnnETdSlyoOCRthelr-151" target="n3OnnETdSlyoOCRthelr-150">
          <mxGeometry width="50" height="50" relative="1" as="geometry">
            <mxPoint x="220" as="sourcePoint" />
            <mxPoint x="10" y="70" as="targetPoint" />
            <Array as="points">
              <mxPoint x="200" y="80" />
            </Array>
          </mxGeometry>
        </mxCell>
        <mxCell id="n3OnnETdSlyoOCRthelr-159" value="User&amp;nbsp;" style="rounded=0;whiteSpace=wrap;html=1;fontSize=16;" vertex="1" parent="1">
          <mxGeometry x="-530" y="280" width="120" height="60" as="geometry" />
        </mxCell>
        <mxCell id="n3OnnETdSlyoOCRthelr-160" value="Database&amp;nbsp;" style="ellipse;whiteSpace=wrap;html=1;fontSize=16;" vertex="1" parent="1">
          <mxGeometry x="-75" y="260" width="120" height="80" as="geometry" />
        </mxCell>
        <mxCell id="n3OnnETdSlyoOCRthelr-161" value="Admin&amp;nbsp;" style="rounded=0;whiteSpace=wrap;html=1;fontSize=16;" vertex="1" parent="1">
          <mxGeometry x="340" y="270" width="120" height="60" as="geometry" />
        </mxCell>
        <mxCell id="n3OnnETdSlyoOCRthelr-162" value="" style="endArrow=classic;html=1;rounded=0;fontSize=12;startSize=8;endSize=8;curved=1;exitX=0.5;exitY=0;exitDx=0;exitDy=0;entryX=0.5;entryY=0;entryDx=0;entryDy=0;" edge="1" parent="1" source="n3OnnETdSlyoOCRthelr-159" target="n3OnnETdSlyoOCRthelr-160">
          <mxGeometry width="50" height="50" relative="1" as="geometry">
            <mxPoint x="-210" y="130" as="sourcePoint" />
            <mxPoint x="-160" y="80" as="targetPoint" />
            <Array as="points">
              <mxPoint x="-250" y="220" />
            </Array>
          </mxGeometry>
        </mxCell>
        <mxCell id="n3OnnETdSlyoOCRthelr-163" value="Feedback&amp;nbsp;" style="edgeLabel;html=1;align=center;verticalAlign=middle;resizable=0;points=[];fontSize=16;" connectable="0" vertex="1" parent="n3OnnETdSlyoOCRthelr-162">
          <mxGeometry x="-0.1533" y="-16" relative="1" as="geometry">
            <mxPoint x="-1" as="offset" />
          </mxGeometry>
        </mxCell>
        <mxCell id="n3OnnETdSlyoOCRthelr-164" value="Information&amp;nbsp;" style="endArrow=classic;html=1;rounded=0;fontSize=12;startSize=8;endSize=8;curved=1;exitX=1;exitY=0;exitDx=0;exitDy=0;entryX=0.75;entryY=0;entryDx=0;entryDy=0;" edge="1" parent="1" source="n3OnnETdSlyoOCRthelr-160" target="n3OnnETdSlyoOCRthelr-161">
          <mxGeometry width="50" height="50" relative="1" as="geometry">
            <mxPoint x="10" y="250" as="sourcePoint" />
            <mxPoint x="90" y="130" as="targetPoint" />
            <Array as="points">
              <mxPoint x="180" y="180" />
            </Array>
          </mxGeometry>
        </mxCell>
        <mxCell id="n3OnnETdSlyoOCRthelr-165" value="" style="endArrow=classic;html=1;rounded=0;fontSize=12;startSize=8;endSize=8;curved=1;entryX=0.5;entryY=1;entryDx=0;entryDy=0;exitX=0.75;exitY=1;exitDx=0;exitDy=0;" edge="1" parent="1" source="n3OnnETdSlyoOCRthelr-161" target="n3OnnETdSlyoOCRthelr-160">
          <mxGeometry width="50" height="50" relative="1" as="geometry">
            <mxPoint x="400" y="350" as="sourcePoint" />
            <mxPoint x="140" y="220" as="targetPoint" />
            <Array as="points">
              <mxPoint x="200" y="410" />
            </Array>
          </mxGeometry>
        </mxCell>
        <mxCell id="n3OnnETdSlyoOCRthelr-166" value="" style="endArrow=classic;html=1;rounded=0;fontSize=12;startSize=8;endSize=8;curved=1;entryX=0.25;entryY=1;entryDx=0;entryDy=0;" edge="1" parent="1" target="n3OnnETdSlyoOCRthelr-159">
          <mxGeometry width="50" height="50" relative="1" as="geometry">
            <mxPoint x="-50" y="330" as="sourcePoint" />
            <mxPoint x="-210" y="230" as="targetPoint" />
            <Array as="points">
              <mxPoint x="-290" y="430" />
            </Array>
          </mxGeometry>
        </mxCell>
        <mxCell id="n3OnnETdSlyoOCRthelr-167" value="Changes&amp;nbsp;" style="edgeLabel;html=1;align=center;verticalAlign=middle;resizable=0;points=[];fontSize=16;" connectable="0" vertex="1" parent="n3OnnETdSlyoOCRthelr-166">
          <mxGeometry x="0.2008" y="-10" relative="1" as="geometry">
            <mxPoint x="-1" as="offset" />
          </mxGeometry>
        </mxCell>
        <mxCell id="n3OnnETdSlyoOCRthelr-168" value="Maintenance&amp;nbsp;" style="text;html=1;align=center;verticalAlign=middle;resizable=0;points=[];autosize=1;strokeColor=none;fillColor=none;fontSize=16;" vertex="1" parent="1">
          <mxGeometry x="131" y="338" width="120" height="30" as="geometry" />
        </mxCell>
      </root>
    </mxGraphModel>
  </diagram>
  <diagram id="LmTzAr_gyi4tF9EF7zwY" name="1 level">
    <mxGraphModel dx="2250" dy="1796" grid="1" gridSize="10" guides="1" tooltips="1" connect="1" arrows="1" fold="1" page="1" pageScale="1" pageWidth="850" pageHeight="1100" math="0" shadow="0">
      <root>
        <mxCell id="0" />
        <mxCell id="1" parent="0" />
        <mxCell id="cSwPg_l11MIlLB-0RX7O-1" value="Database&amp;nbsp;" style="ellipse;whiteSpace=wrap;html=1;fontSize=16;" vertex="1" parent="1">
          <mxGeometry x="-110" y="-610" width="170" height="100" as="geometry" />
        </mxCell>
        <mxCell id="cSwPg_l11MIlLB-0RX7O-2" value="" style="endArrow=classic;html=1;rounded=0;fontSize=12;startSize=8;endSize=8;curved=1;exitX=0.5;exitY=0;exitDx=0;exitDy=0;entryX=0.5;entryY=0;entryDx=0;entryDy=0;" edge="1" parent="1" target="cSwPg_l11MIlLB-0RX7O-1">
          <mxGeometry width="50" height="50" relative="1" as="geometry">
            <mxPoint x="-500" y="-609.9999999999998" as="sourcePoint" />
            <mxPoint x="-300" y="-450" as="targetPoint" />
            <Array as="points">
              <mxPoint x="-240" y="-720" />
            </Array>
          </mxGeometry>
        </mxCell>
        <mxCell id="cSwPg_l11MIlLB-0RX7O-3" value="Register details&amp;nbsp;" style="edgeLabel;html=1;align=center;verticalAlign=middle;resizable=0;points=[];fontSize=16;" connectable="0" vertex="1" parent="cSwPg_l11MIlLB-0RX7O-2">
          <mxGeometry x="-0.1506" y="-39" relative="1" as="geometry">
            <mxPoint x="-1" as="offset" />
          </mxGeometry>
        </mxCell>
        <mxCell id="cSwPg_l11MIlLB-0RX7O-4" value="" style="endArrow=classic;html=1;rounded=0;fontSize=12;startSize=8;endSize=8;curved=1;exitX=0.417;exitY=1;exitDx=0;exitDy=0;entryX=1;entryY=1;entryDx=0;entryDy=0;exitPerimeter=0;" edge="1" parent="1" source="cSwPg_l11MIlLB-0RX7O-35" target="cSwPg_l11MIlLB-0RX7O-1">
          <mxGeometry width="50" height="50" relative="1" as="geometry">
            <mxPoint x="395" y="-540" as="sourcePoint" />
            <mxPoint x="150" y="-350" as="targetPoint" />
            <Array as="points">
              <mxPoint x="230" y="-420" />
            </Array>
          </mxGeometry>
        </mxCell>
        <mxCell id="cSwPg_l11MIlLB-0RX7O-5" value="Response&amp;nbsp;" style="edgeLabel;html=1;align=center;verticalAlign=middle;resizable=0;points=[];fontSize=16;" connectable="0" vertex="1" parent="cSwPg_l11MIlLB-0RX7O-4">
          <mxGeometry x="0.1301" y="-22" relative="1" as="geometry">
            <mxPoint x="-1" as="offset" />
          </mxGeometry>
        </mxCell>
        <mxCell id="cSwPg_l11MIlLB-0RX7O-6" value="" style="endArrow=classic;html=1;rounded=0;fontSize=12;startSize=8;endSize=8;curved=1;exitX=1;exitY=0;exitDx=0;exitDy=0;entryX=0.25;entryY=0;entryDx=0;entryDy=0;" edge="1" parent="1" source="cSwPg_l11MIlLB-0RX7O-1" target="cSwPg_l11MIlLB-0RX7O-35">
          <mxGeometry width="50" height="50" relative="1" as="geometry">
            <mxPoint x="130" y="-320" as="sourcePoint" />
            <mxPoint x="360" y="-620" as="targetPoint" />
            <Array as="points">
              <mxPoint x="130" y="-640" />
              <mxPoint x="200" y="-650" />
            </Array>
          </mxGeometry>
        </mxCell>
        <mxCell id="cSwPg_l11MIlLB-0RX7O-7" value="Data register&amp;nbsp;" style="edgeLabel;html=1;align=center;verticalAlign=middle;resizable=0;points=[];fontSize=16;" vertex="1" connectable="0" parent="cSwPg_l11MIlLB-0RX7O-6">
          <mxGeometry x="-0.1847" y="13" relative="1" as="geometry">
            <mxPoint as="offset" />
          </mxGeometry>
        </mxCell>
        <mxCell id="cSwPg_l11MIlLB-0RX7O-8" value="Database&amp;nbsp;" style="ellipse;whiteSpace=wrap;html=1;fontSize=16;" vertex="1" parent="1">
          <mxGeometry x="-60" y="-340" width="120" height="80" as="geometry" />
        </mxCell>
        <mxCell id="cSwPg_l11MIlLB-0RX7O-9" value="" style="endArrow=classic;html=1;rounded=0;fontSize=12;startSize=8;endSize=8;curved=1;exitX=0.5;exitY=0;exitDx=0;exitDy=0;entryX=0.5;entryY=0;entryDx=0;entryDy=0;" edge="1" parent="1" source="cSwPg_l11MIlLB-0RX7O-36" target="cSwPg_l11MIlLB-0RX7O-8">
          <mxGeometry width="50" height="50" relative="1" as="geometry">
            <mxPoint x="-460" y="-330" as="sourcePoint" />
            <mxPoint x="-180" y="-260" as="targetPoint" />
            <Array as="points">
              <mxPoint x="-250" y="-360" />
            </Array>
          </mxGeometry>
        </mxCell>
        <mxCell id="cSwPg_l11MIlLB-0RX7O-10" value="Product details&amp;nbsp;" style="edgeLabel;html=1;align=center;verticalAlign=middle;resizable=0;points=[];fontSize=16;" vertex="1" connectable="0" parent="cSwPg_l11MIlLB-0RX7O-9">
          <mxGeometry x="-0.1651" y="-19" relative="1" as="geometry">
            <mxPoint x="-1" as="offset" />
          </mxGeometry>
        </mxCell>
        <mxCell id="cSwPg_l11MIlLB-0RX7O-11" value="" style="endArrow=classic;html=1;rounded=0;fontSize=12;startSize=8;endSize=8;curved=1;entryX=0.25;entryY=1;entryDx=0;entryDy=0;exitX=0.5;exitY=1;exitDx=0;exitDy=0;" edge="1" parent="1" source="cSwPg_l11MIlLB-0RX7O-8" target="cSwPg_l11MIlLB-0RX7O-36">
          <mxGeometry width="50" height="50" relative="1" as="geometry">
            <mxPoint x="-250" y="-80" as="sourcePoint" />
            <mxPoint x="-490" y="-270" as="targetPoint" />
            <Array as="points">
              <mxPoint x="-250" y="-200" />
            </Array>
          </mxGeometry>
        </mxCell>
        <mxCell id="cSwPg_l11MIlLB-0RX7O-12" value="Information of product&amp;nbsp;" style="edgeLabel;html=1;align=center;verticalAlign=middle;resizable=0;points=[];fontSize=16;" vertex="1" connectable="0" parent="cSwPg_l11MIlLB-0RX7O-11">
          <mxGeometry x="0.2543" y="-12" relative="1" as="geometry">
            <mxPoint as="offset" />
          </mxGeometry>
        </mxCell>
        <mxCell id="cSwPg_l11MIlLB-0RX7O-13" value="" style="endArrow=classic;html=1;rounded=0;fontSize=12;startSize=8;endSize=8;curved=1;exitX=1;exitY=0;exitDx=0;exitDy=0;entryX=0.417;entryY=0;entryDx=0;entryDy=0;entryPerimeter=0;" edge="1" parent="1" source="cSwPg_l11MIlLB-0RX7O-8" target="cSwPg_l11MIlLB-0RX7O-37">
          <mxGeometry width="50" height="50" relative="1" as="geometry">
            <mxPoint x="50" y="-350" as="sourcePoint" />
            <mxPoint x="410" y="-330" as="targetPoint" />
            <Array as="points">
              <mxPoint x="130" y="-390" />
            </Array>
          </mxGeometry>
        </mxCell>
        <mxCell id="cSwPg_l11MIlLB-0RX7O-14" value="Request recieved&amp;nbsp;" style="edgeLabel;html=1;align=center;verticalAlign=middle;resizable=0;points=[];fontSize=16;" connectable="0" vertex="1" parent="cSwPg_l11MIlLB-0RX7O-13">
          <mxGeometry x="-0.0968" y="-33" relative="1" as="geometry">
            <mxPoint as="offset" />
          </mxGeometry>
        </mxCell>
        <mxCell id="cSwPg_l11MIlLB-0RX7O-15" value="" style="endArrow=classic;html=1;rounded=0;fontSize=12;startSize=8;endSize=8;curved=1;entryX=1;entryY=1;entryDx=0;entryDy=0;exitX=0.5;exitY=1;exitDx=0;exitDy=0;" edge="1" parent="1" source="cSwPg_l11MIlLB-0RX7O-37" target="cSwPg_l11MIlLB-0RX7O-8">
          <mxGeometry width="50" height="50" relative="1" as="geometry">
            <mxPoint x="380" y="-270" as="sourcePoint" />
            <mxPoint x="100" y="-400" as="targetPoint" />
            <Array as="points">
              <mxPoint x="210" y="-220" />
            </Array>
          </mxGeometry>
        </mxCell>
        <mxCell id="cSwPg_l11MIlLB-0RX7O-16" value="Query response&amp;nbsp;" style="edgeLabel;html=1;align=center;verticalAlign=middle;resizable=0;points=[];fontSize=16;" vertex="1" connectable="0" parent="cSwPg_l11MIlLB-0RX7O-15">
          <mxGeometry x="0.3003" y="5" relative="1" as="geometry">
            <mxPoint x="1" as="offset" />
          </mxGeometry>
        </mxCell>
        <mxCell id="cSwPg_l11MIlLB-0RX7O-17" value="Database&amp;nbsp;" style="ellipse;whiteSpace=wrap;html=1;fontSize=16;" vertex="1" parent="1">
          <mxGeometry x="-70" y="-30" width="120" height="80" as="geometry" />
        </mxCell>
        <mxCell id="cSwPg_l11MIlLB-0RX7O-18" value="" style="endArrow=classic;html=1;rounded=0;fontSize=12;startSize=8;endSize=8;curved=1;exitX=0.5;exitY=0;exitDx=0;exitDy=0;entryX=0.5;entryY=0;entryDx=0;entryDy=0;" edge="1" parent="1" source="cSwPg_l11MIlLB-0RX7O-40" target="cSwPg_l11MIlLB-0RX7O-17">
          <mxGeometry width="50" height="50" relative="1" as="geometry">
            <mxPoint x="-490" y="-20" as="sourcePoint" />
            <mxPoint x="-190" y="-60" as="targetPoint" />
            <Array as="points">
              <mxPoint x="-250" y="-90" />
            </Array>
          </mxGeometry>
        </mxCell>
        <mxCell id="cSwPg_l11MIlLB-0RX7O-19" value="Material availability&amp;nbsp;" style="edgeLabel;html=1;align=center;verticalAlign=middle;resizable=0;points=[];fontSize=16;" vertex="1" connectable="0" parent="cSwPg_l11MIlLB-0RX7O-18">
          <mxGeometry x="-0.043" y="-1" relative="1" as="geometry">
            <mxPoint as="offset" />
          </mxGeometry>
        </mxCell>
        <mxCell id="cSwPg_l11MIlLB-0RX7O-20" value="" style="endArrow=classic;html=1;rounded=0;fontSize=12;startSize=8;endSize=8;curved=1;entryX=0.5;entryY=1;entryDx=0;entryDy=0;exitX=0.5;exitY=1;exitDx=0;exitDy=0;" edge="1" parent="1" source="cSwPg_l11MIlLB-0RX7O-17" target="cSwPg_l11MIlLB-0RX7O-40">
          <mxGeometry width="50" height="50" relative="1" as="geometry">
            <mxPoint x="-210" y="-10" as="sourcePoint" />
            <mxPoint x="-490" y="40" as="targetPoint" />
            <Array as="points">
              <mxPoint x="-270" y="90" />
            </Array>
          </mxGeometry>
        </mxCell>
        <mxCell id="cSwPg_l11MIlLB-0RX7O-21" value="Status&amp;nbsp;" style="edgeLabel;html=1;align=center;verticalAlign=middle;resizable=0;points=[];fontSize=16;" vertex="1" connectable="0" parent="cSwPg_l11MIlLB-0RX7O-20">
          <mxGeometry x="0.0154" y="-26" relative="1" as="geometry">
            <mxPoint as="offset" />
          </mxGeometry>
        </mxCell>
        <mxCell id="cSwPg_l11MIlLB-0RX7O-22" value="" style="endArrow=classic;html=1;rounded=0;fontSize=12;startSize=8;endSize=8;curved=1;exitX=1;exitY=0;exitDx=0;exitDy=0;entryX=0.5;entryY=0;entryDx=0;entryDy=0;" edge="1" parent="1" source="cSwPg_l11MIlLB-0RX7O-17" target="cSwPg_l11MIlLB-0RX7O-38">
          <mxGeometry width="50" height="50" relative="1" as="geometry">
            <mxPoint x="60" y="-10" as="sourcePoint" />
            <mxPoint x="390" y="-20.000000000000227" as="targetPoint" />
            <Array as="points">
              <mxPoint x="190" y="-70" />
            </Array>
          </mxGeometry>
        </mxCell>
        <mxCell id="cSwPg_l11MIlLB-0RX7O-23" value="Enquiry&amp;nbsp;" style="edgeLabel;html=1;align=center;verticalAlign=middle;resizable=0;points=[];fontSize=16;" vertex="1" connectable="0" parent="cSwPg_l11MIlLB-0RX7O-22">
          <mxGeometry x="-0.1697" y="-11" relative="1" as="geometry">
            <mxPoint x="1" as="offset" />
          </mxGeometry>
        </mxCell>
        <mxCell id="cSwPg_l11MIlLB-0RX7O-24" value="Updates&amp;nbsp;" style="endArrow=classic;html=1;rounded=0;fontSize=12;startSize=8;endSize=8;curved=1;exitX=0.5;exitY=1;exitDx=0;exitDy=0;entryX=1;entryY=1;entryDx=0;entryDy=0;" edge="1" parent="1" source="cSwPg_l11MIlLB-0RX7O-38" target="cSwPg_l11MIlLB-0RX7O-17">
          <mxGeometry width="50" height="50" relative="1" as="geometry">
            <mxPoint x="390" y="40" as="sourcePoint" />
            <mxPoint y="60" as="targetPoint" />
            <Array as="points">
              <mxPoint x="190" y="70" />
            </Array>
          </mxGeometry>
        </mxCell>
        <mxCell id="cSwPg_l11MIlLB-0RX7O-25" value="Database&amp;nbsp;" style="ellipse;whiteSpace=wrap;html=1;fontSize=16;" vertex="1" parent="1">
          <mxGeometry x="-85" y="250" width="120" height="80" as="geometry" />
        </mxCell>
        <mxCell id="cSwPg_l11MIlLB-0RX7O-26" value="" style="endArrow=classic;html=1;rounded=0;fontSize=12;startSize=8;endSize=8;curved=1;exitX=0.5;exitY=0;exitDx=0;exitDy=0;entryX=0.5;entryY=0;entryDx=0;entryDy=0;" edge="1" parent="1" source="cSwPg_l11MIlLB-0RX7O-41" target="cSwPg_l11MIlLB-0RX7O-25">
          <mxGeometry width="50" height="50" relative="1" as="geometry">
            <mxPoint x="-480" y="270" as="sourcePoint" />
            <mxPoint x="-170" y="70" as="targetPoint" />
            <Array as="points">
              <mxPoint x="-260" y="210" />
            </Array>
          </mxGeometry>
        </mxCell>
        <mxCell id="cSwPg_l11MIlLB-0RX7O-27" value="product add to cart" style="edgeLabel;html=1;align=center;verticalAlign=middle;resizable=0;points=[];fontSize=16;" vertex="1" connectable="0" parent="cSwPg_l11MIlLB-0RX7O-26">
          <mxGeometry x="-0.1533" y="-16" relative="1" as="geometry">
            <mxPoint x="-1" as="offset" />
          </mxGeometry>
        </mxCell>
        <mxCell id="cSwPg_l11MIlLB-0RX7O-28" value="" style="endArrow=classic;html=1;rounded=0;fontSize=12;startSize=8;endSize=8;curved=1;entryX=0.5;entryY=1;entryDx=0;entryDy=0;exitX=0.5;exitY=1;exitDx=0;exitDy=0;" edge="1" parent="1" source="cSwPg_l11MIlLB-0RX7O-39" target="cSwPg_l11MIlLB-0RX7O-25">
          <mxGeometry width="50" height="50" relative="1" as="geometry">
            <mxPoint x="419.9999999999998" y="320" as="sourcePoint" />
            <mxPoint x="130" y="210" as="targetPoint" />
            <Array as="points">
              <mxPoint x="190" y="400" />
            </Array>
          </mxGeometry>
        </mxCell>
        <mxCell id="cSwPg_l11MIlLB-0RX7O-29" value="" style="endArrow=classic;html=1;rounded=0;fontSize=12;startSize=8;endSize=8;curved=1;entryX=0.25;entryY=1;entryDx=0;entryDy=0;" edge="1" parent="1" target="cSwPg_l11MIlLB-0RX7O-41">
          <mxGeometry width="50" height="50" relative="1" as="geometry">
            <mxPoint x="-60" y="320" as="sourcePoint" />
            <mxPoint x="-510" y="330" as="targetPoint" />
            <Array as="points">
              <mxPoint x="-300" y="420" />
            </Array>
          </mxGeometry>
        </mxCell>
        <mxCell id="cSwPg_l11MIlLB-0RX7O-30" value="product added to cart" style="edgeLabel;html=1;align=center;verticalAlign=middle;resizable=0;points=[];fontSize=16;" vertex="1" connectable="0" parent="cSwPg_l11MIlLB-0RX7O-29">
          <mxGeometry x="0.2008" y="-10" relative="1" as="geometry">
            <mxPoint x="-1" as="offset" />
          </mxGeometry>
        </mxCell>
        <mxCell id="cSwPg_l11MIlLB-0RX7O-31" value="request approve according to availability" style="text;html=1;align=center;verticalAlign=middle;resizable=0;points=[];autosize=1;strokeColor=none;fillColor=none;fontSize=16;" vertex="1" parent="1">
          <mxGeometry x="26" y="328" width="310" height="30" as="geometry" />
        </mxCell>
        <mxCell id="cSwPg_l11MIlLB-0RX7O-32" value="" style="endArrow=classic;html=1;rounded=0;fontSize=12;startSize=8;endSize=8;curved=1;exitX=0.5;exitY=1;exitDx=0;exitDy=0;entryX=0.5;entryY=1;entryDx=0;entryDy=0;" edge="1" parent="1" source="cSwPg_l11MIlLB-0RX7O-1" target="cSwPg_l11MIlLB-0RX7O-34">
          <mxGeometry width="50" height="50" relative="1" as="geometry">
            <mxPoint x="-25" y="-510" as="sourcePoint" />
            <mxPoint x="-500" y="-549.9999999999995" as="targetPoint" />
            <Array as="points">
              <mxPoint x="-270" y="-490" />
            </Array>
          </mxGeometry>
        </mxCell>
        <mxCell id="cSwPg_l11MIlLB-0RX7O-33" value="Validation&amp;nbsp;" style="edgeLabel;html=1;align=center;verticalAlign=middle;resizable=0;points=[];fontSize=16;" connectable="0" vertex="1" parent="cSwPg_l11MIlLB-0RX7O-32">
          <mxGeometry x="-0.0081" y="18" relative="1" as="geometry">
            <mxPoint as="offset" />
          </mxGeometry>
        </mxCell>
        <mxCell id="cSwPg_l11MIlLB-0RX7O-34" value="User" style="shape=partialRectangle;whiteSpace=wrap;html=1;left=0;right=0;fillColor=none;fontSize=16;" vertex="1" parent="1">
          <mxGeometry x="-550" y="-610" width="120" height="60" as="geometry" />
        </mxCell>
        <mxCell id="cSwPg_l11MIlLB-0RX7O-35" value="Admin&amp;nbsp;" style="shape=partialRectangle;whiteSpace=wrap;html=1;left=0;right=0;fillColor=none;fontSize=16;" vertex="1" parent="1">
          <mxGeometry x="350" y="-610" width="120" height="60" as="geometry" />
        </mxCell>
        <mxCell id="cSwPg_l11MIlLB-0RX7O-36" value="User" style="shape=partialRectangle;whiteSpace=wrap;html=1;left=0;right=0;fillColor=none;fontSize=16;" vertex="1" parent="1">
          <mxGeometry x="-550" y="-330" width="120" height="60" as="geometry" />
        </mxCell>
        <mxCell id="cSwPg_l11MIlLB-0RX7O-37" value="Admin&amp;nbsp;" style="shape=partialRectangle;whiteSpace=wrap;html=1;left=0;right=0;fillColor=none;fontSize=16;" vertex="1" parent="1">
          <mxGeometry x="330" y="-330" width="120" height="60" as="geometry" />
        </mxCell>
        <mxCell id="cSwPg_l11MIlLB-0RX7O-38" value="Admin&amp;nbsp;" style="shape=partialRectangle;whiteSpace=wrap;html=1;left=0;right=0;fillColor=none;fontSize=16;" vertex="1" parent="1">
          <mxGeometry x="310" y="-20" width="120" height="60" as="geometry" />
        </mxCell>
        <mxCell id="cSwPg_l11MIlLB-0RX7O-39" value="Admin&amp;nbsp;" style="shape=partialRectangle;whiteSpace=wrap;html=1;left=0;right=0;fillColor=none;fontSize=16;" vertex="1" parent="1">
          <mxGeometry x="340" y="260" width="120" height="60" as="geometry" />
        </mxCell>
        <mxCell id="cSwPg_l11MIlLB-0RX7O-40" value="User&amp;nbsp;" style="shape=partialRectangle;whiteSpace=wrap;html=1;left=0;right=0;fillColor=none;fontSize=16;" vertex="1" parent="1">
          <mxGeometry x="-580" y="-20" width="120" height="60" as="geometry" />
        </mxCell>
        <mxCell id="cSwPg_l11MIlLB-0RX7O-41" value="User&amp;nbsp;" style="shape=partialRectangle;whiteSpace=wrap;html=1;left=0;right=0;fillColor=none;fontSize=16;" vertex="1" parent="1">
          <mxGeometry x="-570" y="268" width="120" height="60" as="geometry" />
        </mxCell>
        <mxCell id="cSwPg_l11MIlLB-0RX7O-42" value="" style="endArrow=classic;html=1;rounded=0;entryX=0.25;entryY=0;entryDx=0;entryDy=0;" edge="1" parent="1" target="cSwPg_l11MIlLB-0RX7O-39">
          <mxGeometry width="50" height="50" relative="1" as="geometry">
            <mxPoint x="10" y="260" as="sourcePoint" />
            <mxPoint x="-30" y="310" as="targetPoint" />
            <Array as="points">
              <mxPoint x="190" y="220" />
            </Array>
          </mxGeometry>
        </mxCell>
        <mxCell id="cSwPg_l11MIlLB-0RX7O-43" value="request" style="edgeLabel;html=1;align=center;verticalAlign=middle;resizable=0;points=[];" connectable="0" vertex="1" parent="cSwPg_l11MIlLB-0RX7O-42">
          <mxGeometry x="-0.3951" y="-3" relative="1" as="geometry">
            <mxPoint as="offset" />
          </mxGeometry>
        </mxCell>
        <mxCell id="cSwPg_l11MIlLB-0RX7O-44" value="Database" style="ellipse;whiteSpace=wrap;html=1;" vertex="1" parent="1">
          <mxGeometry x="-94" y="480" width="120" height="80" as="geometry" />
        </mxCell>
        <mxCell id="cSwPg_l11MIlLB-0RX7O-45" value="User" style="shape=partialRectangle;whiteSpace=wrap;html=1;left=0;right=0;fillColor=none;" vertex="1" parent="1">
          <mxGeometry x="-540" y="500" width="120" height="60" as="geometry" />
        </mxCell>
        <mxCell id="cSwPg_l11MIlLB-0RX7O-46" value="Admin" style="shape=partialRectangle;whiteSpace=wrap;html=1;left=0;right=0;fillColor=none;" vertex="1" parent="1">
          <mxGeometry x="310" y="490" width="120" height="60" as="geometry" />
        </mxCell>
        <mxCell id="cSwPg_l11MIlLB-0RX7O-47" value="Admin" style="shape=partialRectangle;whiteSpace=wrap;html=1;left=0;right=0;fillColor=none;" vertex="1" parent="1">
          <mxGeometry x="320" y="680" width="120" height="60" as="geometry" />
        </mxCell>
        <mxCell id="cSwPg_l11MIlLB-0RX7O-48" value="Database" style="ellipse;whiteSpace=wrap;html=1;" vertex="1" parent="1">
          <mxGeometry x="-94" y="660" width="120" height="80" as="geometry" />
        </mxCell>
        <mxCell id="cSwPg_l11MIlLB-0RX7O-49" value="User" style="shape=partialRectangle;whiteSpace=wrap;html=1;left=0;right=0;fillColor=none;" vertex="1" parent="1">
          <mxGeometry x="-540" y="670" width="120" height="60" as="geometry" />
        </mxCell>
        <mxCell id="cSwPg_l11MIlLB-0RX7O-50" value="" style="endArrow=classic;html=1;rounded=0;exitX=1;exitY=0;exitDx=0;exitDy=0;entryX=0.5;entryY=0;entryDx=0;entryDy=0;" edge="1" parent="1" source="cSwPg_l11MIlLB-0RX7O-45" target="cSwPg_l11MIlLB-0RX7O-44">
          <mxGeometry width="50" height="50" relative="1" as="geometry">
            <mxPoint x="-80" y="700" as="sourcePoint" />
            <mxPoint x="-30" y="650" as="targetPoint" />
            <Array as="points">
              <mxPoint x="-110" y="440" />
            </Array>
          </mxGeometry>
        </mxCell>
        <mxCell id="cSwPg_l11MIlLB-0RX7O-51" value="product order and shipping details" style="edgeLabel;html=1;align=center;verticalAlign=middle;resizable=0;points=[];" connectable="0" vertex="1" parent="cSwPg_l11MIlLB-0RX7O-50">
          <mxGeometry x="-0.4125" y="1" relative="1" as="geometry">
            <mxPoint as="offset" />
          </mxGeometry>
        </mxCell>
        <mxCell id="cSwPg_l11MIlLB-0RX7O-52" value="" style="endArrow=classic;html=1;rounded=0;entryX=0.25;entryY=0;entryDx=0;entryDy=0;exitX=0.94;exitY=0.193;exitDx=0;exitDy=0;exitPerimeter=0;" edge="1" parent="1" source="cSwPg_l11MIlLB-0RX7O-44" target="cSwPg_l11MIlLB-0RX7O-46">
          <mxGeometry width="50" height="50" relative="1" as="geometry">
            <mxPoint x="-80" y="700" as="sourcePoint" />
            <mxPoint x="-30" y="650" as="targetPoint" />
            <Array as="points">
              <mxPoint x="240" y="460" />
            </Array>
          </mxGeometry>
        </mxCell>
        <mxCell id="cSwPg_l11MIlLB-0RX7O-53" value="data recieved" style="edgeLabel;html=1;align=center;verticalAlign=middle;resizable=0;points=[];" connectable="0" vertex="1" parent="cSwPg_l11MIlLB-0RX7O-52">
          <mxGeometry x="-0.4626" y="2" relative="1" as="geometry">
            <mxPoint as="offset" />
          </mxGeometry>
        </mxCell>
        <mxCell id="cSwPg_l11MIlLB-0RX7O-54" value="" style="endArrow=classic;html=1;rounded=0;entryX=1;entryY=1;entryDx=0;entryDy=0;exitX=0;exitY=1;exitDx=0;exitDy=0;" edge="1" parent="1" source="cSwPg_l11MIlLB-0RX7O-46" target="cSwPg_l11MIlLB-0RX7O-44">
          <mxGeometry width="50" height="50" relative="1" as="geometry">
            <mxPoint x="-80" y="700" as="sourcePoint" />
            <mxPoint x="-30" y="650" as="targetPoint" />
            <Array as="points">
              <mxPoint x="250" y="590" />
            </Array>
          </mxGeometry>
        </mxCell>
        <mxCell id="cSwPg_l11MIlLB-0RX7O-55" value="product shipped from seller" style="edgeLabel;html=1;align=center;verticalAlign=middle;resizable=0;points=[];" connectable="0" vertex="1" parent="cSwPg_l11MIlLB-0RX7O-54">
          <mxGeometry x="0.3656" relative="1" as="geometry">
            <mxPoint as="offset" />
          </mxGeometry>
        </mxCell>
        <mxCell id="cSwPg_l11MIlLB-0RX7O-56" value="" style="endArrow=classic;html=1;rounded=0;exitX=0.897;exitY=1.057;exitDx=0;exitDy=0;exitPerimeter=0;entryX=0.5;entryY=1;entryDx=0;entryDy=0;" edge="1" parent="1" source="cSwPg_l11MIlLB-0RX7O-45" target="cSwPg_l11MIlLB-0RX7O-44">
          <mxGeometry width="50" height="50" relative="1" as="geometry">
            <mxPoint x="-80" y="640" as="sourcePoint" />
            <mxPoint x="-30" y="590" as="targetPoint" />
            <Array as="points">
              <mxPoint x="-230" y="590" />
            </Array>
          </mxGeometry>
        </mxCell>
        <mxCell id="cSwPg_l11MIlLB-0RX7O-57" value="product recieved" style="edgeLabel;html=1;align=center;verticalAlign=middle;resizable=0;points=[];" connectable="0" vertex="1" parent="cSwPg_l11MIlLB-0RX7O-56">
          <mxGeometry x="-0.3676" y="-1" relative="1" as="geometry">
            <mxPoint as="offset" />
          </mxGeometry>
        </mxCell>
        <mxCell id="cSwPg_l11MIlLB-0RX7O-58" value="" style="endArrow=classic;html=1;rounded=0;exitX=0.75;exitY=0;exitDx=0;exitDy=0;entryX=0;entryY=0;entryDx=0;entryDy=0;" edge="1" parent="1" source="cSwPg_l11MIlLB-0RX7O-49" target="cSwPg_l11MIlLB-0RX7O-48">
          <mxGeometry width="50" height="50" relative="1" as="geometry">
            <mxPoint x="-80" y="650" as="sourcePoint" />
            <mxPoint x="-30" y="600" as="targetPoint" />
          </mxGeometry>
        </mxCell>
        <mxCell id="cSwPg_l11MIlLB-0RX7O-59" value="feedback and help" style="edgeLabel;html=1;align=center;verticalAlign=middle;resizable=0;points=[];" connectable="0" vertex="1" parent="cSwPg_l11MIlLB-0RX7O-58">
          <mxGeometry x="-0.2686" y="-2" relative="1" as="geometry">
            <mxPoint as="offset" />
          </mxGeometry>
        </mxCell>
        <mxCell id="cSwPg_l11MIlLB-0RX7O-60" value="" style="endArrow=classic;html=1;rounded=0;entryX=0.323;entryY=-0.023;entryDx=0;entryDy=0;entryPerimeter=0;exitX=1;exitY=0;exitDx=0;exitDy=0;" edge="1" parent="1" source="cSwPg_l11MIlLB-0RX7O-48" target="cSwPg_l11MIlLB-0RX7O-47">
          <mxGeometry width="50" height="50" relative="1" as="geometry">
            <mxPoint x="-80" y="650" as="sourcePoint" />
            <mxPoint x="-30" y="600" as="targetPoint" />
            <Array as="points">
              <mxPoint x="290" y="650" />
            </Array>
          </mxGeometry>
        </mxCell>
        <mxCell id="cSwPg_l11MIlLB-0RX7O-61" value="queries and feedback recieved" style="edgeLabel;html=1;align=center;verticalAlign=middle;resizable=0;points=[];" connectable="0" vertex="1" parent="cSwPg_l11MIlLB-0RX7O-60">
          <mxGeometry x="-0.5102" relative="1" as="geometry">
            <mxPoint as="offset" />
          </mxGeometry>
        </mxCell>
        <mxCell id="cSwPg_l11MIlLB-0RX7O-62" value="" style="endArrow=classic;html=1;rounded=0;entryX=1;entryY=1;entryDx=0;entryDy=0;exitX=0.5;exitY=1;exitDx=0;exitDy=0;" edge="1" parent="1" source="cSwPg_l11MIlLB-0RX7O-47" target="cSwPg_l11MIlLB-0RX7O-48">
          <mxGeometry width="50" height="50" relative="1" as="geometry">
            <mxPoint x="-80" y="650" as="sourcePoint" />
            <mxPoint x="-30" y="600" as="targetPoint" />
            <Array as="points">
              <mxPoint x="290" y="780" />
            </Array>
          </mxGeometry>
        </mxCell>
        <mxCell id="cSwPg_l11MIlLB-0RX7O-63" value="updated changes&amp;nbsp;" style="edgeLabel;html=1;align=center;verticalAlign=middle;resizable=0;points=[];" connectable="0" vertex="1" parent="cSwPg_l11MIlLB-0RX7O-62">
          <mxGeometry x="0.4932" y="-2" relative="1" as="geometry">
            <mxPoint as="offset" />
          </mxGeometry>
        </mxCell>
        <mxCell id="cSwPg_l11MIlLB-0RX7O-64" value="" style="endArrow=classic;html=1;rounded=0;entryX=0.75;entryY=1;entryDx=0;entryDy=0;exitX=0.047;exitY=0.663;exitDx=0;exitDy=0;exitPerimeter=0;" edge="1" parent="1" source="cSwPg_l11MIlLB-0RX7O-48" target="cSwPg_l11MIlLB-0RX7O-49">
          <mxGeometry width="50" height="50" relative="1" as="geometry">
            <mxPoint x="-80" y="650" as="sourcePoint" />
            <mxPoint x="-30" y="600" as="targetPoint" />
            <Array as="points">
              <mxPoint x="-360" y="750" />
            </Array>
          </mxGeometry>
        </mxCell>
        <mxCell id="cSwPg_l11MIlLB-0RX7O-65" value="queries solved" style="edgeLabel;html=1;align=center;verticalAlign=middle;resizable=0;points=[];" connectable="0" vertex="1" parent="cSwPg_l11MIlLB-0RX7O-64">
          <mxGeometry x="0.0767" y="3" relative="1" as="geometry">
            <mxPoint as="offset" />
          </mxGeometry>
        </mxCell>
      </root>
    </mxGraphModel>
  </diagram>
  <diagram id="FbVFe73XgWO9QBNJu4Ij" name="ERD DIagram">
    <mxGraphModel dx="1400" dy="696" grid="1" gridSize="10" guides="1" tooltips="1" connect="1" arrows="1" fold="1" page="1" pageScale="1" pageWidth="850" pageHeight="1100" math="0" shadow="0">
      <root>
        <mxCell id="0" />
        <mxCell id="1" parent="0" />
        <mxCell id="488EfA6CdoZYN0aQUhK9-1" value="User table" style="shape=table;startSize=30;container=1;collapsible=1;childLayout=tableLayout;fixedRows=1;rowLines=0;fontStyle=1;align=center;resizeLast=1;html=1;" vertex="1" parent="1">
          <mxGeometry x="335" y="280" width="180" height="180" as="geometry">
            <mxRectangle x="120" y="78" width="100" height="30" as="alternateBounds" />
          </mxGeometry>
        </mxCell>
        <mxCell id="488EfA6CdoZYN0aQUhK9-2" value="" style="shape=tableRow;horizontal=0;startSize=0;swimlaneHead=0;swimlaneBody=0;fillColor=none;collapsible=0;dropTarget=0;points=[[0,0.5],[1,0.5]];portConstraint=eastwest;top=0;left=0;right=0;bottom=1;" vertex="1" parent="488EfA6CdoZYN0aQUhK9-1">
          <mxGeometry y="30" width="180" height="30" as="geometry" />
        </mxCell>
        <mxCell id="488EfA6CdoZYN0aQUhK9-3" value="PK" style="shape=partialRectangle;connectable=0;fillColor=none;top=0;left=0;bottom=0;right=0;fontStyle=1;overflow=hidden;whiteSpace=wrap;html=1;" vertex="1" parent="488EfA6CdoZYN0aQUhK9-2">
          <mxGeometry width="30" height="30" as="geometry">
            <mxRectangle width="30" height="30" as="alternateBounds" />
          </mxGeometry>
        </mxCell>
        <mxCell id="488EfA6CdoZYN0aQUhK9-4" value="user_id" style="shape=partialRectangle;connectable=0;fillColor=none;top=0;left=0;bottom=0;right=0;align=left;spacingLeft=6;fontStyle=5;overflow=hidden;whiteSpace=wrap;html=1;" vertex="1" parent="488EfA6CdoZYN0aQUhK9-2">
          <mxGeometry x="30" width="150" height="30" as="geometry">
            <mxRectangle width="150" height="30" as="alternateBounds" />
          </mxGeometry>
        </mxCell>
        <mxCell id="488EfA6CdoZYN0aQUhK9-5" value="" style="shape=tableRow;horizontal=0;startSize=0;swimlaneHead=0;swimlaneBody=0;fillColor=none;collapsible=0;dropTarget=0;points=[[0,0.5],[1,0.5]];portConstraint=eastwest;top=0;left=0;right=0;bottom=0;" vertex="1" parent="488EfA6CdoZYN0aQUhK9-1">
          <mxGeometry y="60" width="180" height="30" as="geometry" />
        </mxCell>
        <mxCell id="488EfA6CdoZYN0aQUhK9-6" value="" style="shape=partialRectangle;connectable=0;fillColor=none;top=0;left=0;bottom=0;right=0;editable=1;overflow=hidden;whiteSpace=wrap;html=1;" vertex="1" parent="488EfA6CdoZYN0aQUhK9-5">
          <mxGeometry width="30" height="30" as="geometry">
            <mxRectangle width="30" height="30" as="alternateBounds" />
          </mxGeometry>
        </mxCell>
        <mxCell id="488EfA6CdoZYN0aQUhK9-7" value="name" style="shape=partialRectangle;connectable=0;fillColor=none;top=0;left=0;bottom=0;right=0;align=left;spacingLeft=6;overflow=hidden;whiteSpace=wrap;html=1;" vertex="1" parent="488EfA6CdoZYN0aQUhK9-5">
          <mxGeometry x="30" width="150" height="30" as="geometry">
            <mxRectangle width="150" height="30" as="alternateBounds" />
          </mxGeometry>
        </mxCell>
        <mxCell id="488EfA6CdoZYN0aQUhK9-8" value="" style="shape=tableRow;horizontal=0;startSize=0;swimlaneHead=0;swimlaneBody=0;fillColor=none;collapsible=0;dropTarget=0;points=[[0,0.5],[1,0.5]];portConstraint=eastwest;top=0;left=0;right=0;bottom=0;" vertex="1" parent="488EfA6CdoZYN0aQUhK9-1">
          <mxGeometry y="90" width="180" height="30" as="geometry" />
        </mxCell>
        <mxCell id="488EfA6CdoZYN0aQUhK9-9" value="" style="shape=partialRectangle;connectable=0;fillColor=none;top=0;left=0;bottom=0;right=0;editable=1;overflow=hidden;whiteSpace=wrap;html=1;" vertex="1" parent="488EfA6CdoZYN0aQUhK9-8">
          <mxGeometry width="30" height="30" as="geometry">
            <mxRectangle width="30" height="30" as="alternateBounds" />
          </mxGeometry>
        </mxCell>
        <mxCell id="488EfA6CdoZYN0aQUhK9-10" value="email" style="shape=partialRectangle;connectable=0;fillColor=none;top=0;left=0;bottom=0;right=0;align=left;spacingLeft=6;overflow=hidden;whiteSpace=wrap;html=1;" vertex="1" parent="488EfA6CdoZYN0aQUhK9-8">
          <mxGeometry x="30" width="150" height="30" as="geometry">
            <mxRectangle width="150" height="30" as="alternateBounds" />
          </mxGeometry>
        </mxCell>
        <mxCell id="488EfA6CdoZYN0aQUhK9-11" value="" style="shape=tableRow;horizontal=0;startSize=0;swimlaneHead=0;swimlaneBody=0;fillColor=none;collapsible=0;dropTarget=0;points=[[0,0.5],[1,0.5]];portConstraint=eastwest;top=0;left=0;right=0;bottom=0;" vertex="1" parent="488EfA6CdoZYN0aQUhK9-1">
          <mxGeometry y="120" width="180" height="30" as="geometry" />
        </mxCell>
        <mxCell id="488EfA6CdoZYN0aQUhK9-12" value="" style="shape=partialRectangle;connectable=0;fillColor=none;top=0;left=0;bottom=0;right=0;editable=1;overflow=hidden;whiteSpace=wrap;html=1;" vertex="1" parent="488EfA6CdoZYN0aQUhK9-11">
          <mxGeometry width="30" height="30" as="geometry">
            <mxRectangle width="30" height="30" as="alternateBounds" />
          </mxGeometry>
        </mxCell>
        <mxCell id="488EfA6CdoZYN0aQUhK9-13" value="password" style="shape=partialRectangle;connectable=0;fillColor=none;top=0;left=0;bottom=0;right=0;align=left;spacingLeft=6;overflow=hidden;whiteSpace=wrap;html=1;" vertex="1" parent="488EfA6CdoZYN0aQUhK9-11">
          <mxGeometry x="30" width="150" height="30" as="geometry">
            <mxRectangle width="150" height="30" as="alternateBounds" />
          </mxGeometry>
        </mxCell>
        <mxCell id="488EfA6CdoZYN0aQUhK9-14" value="" style="shape=tableRow;horizontal=0;startSize=0;swimlaneHead=0;swimlaneBody=0;fillColor=none;collapsible=0;dropTarget=0;points=[[0,0.5],[1,0.5]];portConstraint=eastwest;top=0;left=0;right=0;bottom=0;" vertex="1" parent="488EfA6CdoZYN0aQUhK9-1">
          <mxGeometry y="150" width="180" height="30" as="geometry" />
        </mxCell>
        <mxCell id="488EfA6CdoZYN0aQUhK9-15" value="" style="shape=partialRectangle;connectable=0;fillColor=none;top=0;left=0;bottom=0;right=0;editable=1;overflow=hidden;whiteSpace=wrap;html=1;" vertex="1" parent="488EfA6CdoZYN0aQUhK9-14">
          <mxGeometry width="30" height="30" as="geometry">
            <mxRectangle width="30" height="30" as="alternateBounds" />
          </mxGeometry>
        </mxCell>
        <mxCell id="488EfA6CdoZYN0aQUhK9-16" value="address" style="shape=partialRectangle;connectable=0;fillColor=none;top=0;left=0;bottom=0;right=0;align=left;spacingLeft=6;overflow=hidden;whiteSpace=wrap;html=1;" vertex="1" parent="488EfA6CdoZYN0aQUhK9-14">
          <mxGeometry x="30" width="150" height="30" as="geometry">
            <mxRectangle width="150" height="30" as="alternateBounds" />
          </mxGeometry>
        </mxCell>
        <mxCell id="488EfA6CdoZYN0aQUhK9-17" value="Books table" style="shape=table;startSize=30;container=1;collapsible=1;childLayout=tableLayout;fixedRows=1;rowLines=0;fontStyle=1;align=center;resizeLast=1;html=1;" vertex="1" parent="1">
          <mxGeometry x="580" y="490" width="180" height="210" as="geometry" />
        </mxCell>
        <mxCell id="488EfA6CdoZYN0aQUhK9-18" value="" style="shape=tableRow;horizontal=0;startSize=0;swimlaneHead=0;swimlaneBody=0;fillColor=none;collapsible=0;dropTarget=0;points=[[0,0.5],[1,0.5]];portConstraint=eastwest;top=0;left=0;right=0;bottom=1;" vertex="1" parent="488EfA6CdoZYN0aQUhK9-17">
          <mxGeometry y="30" width="180" height="30" as="geometry" />
        </mxCell>
        <mxCell id="488EfA6CdoZYN0aQUhK9-19" value="PK" style="shape=partialRectangle;connectable=0;fillColor=none;top=0;left=0;bottom=0;right=0;fontStyle=1;overflow=hidden;whiteSpace=wrap;html=1;" vertex="1" parent="488EfA6CdoZYN0aQUhK9-18">
          <mxGeometry width="30" height="30" as="geometry">
            <mxRectangle width="30" height="30" as="alternateBounds" />
          </mxGeometry>
        </mxCell>
        <mxCell id="488EfA6CdoZYN0aQUhK9-20" value="book_id" style="shape=partialRectangle;connectable=0;fillColor=none;top=0;left=0;bottom=0;right=0;align=left;spacingLeft=6;fontStyle=5;overflow=hidden;whiteSpace=wrap;html=1;" vertex="1" parent="488EfA6CdoZYN0aQUhK9-18">
          <mxGeometry x="30" width="150" height="30" as="geometry">
            <mxRectangle width="150" height="30" as="alternateBounds" />
          </mxGeometry>
        </mxCell>
        <mxCell id="488EfA6CdoZYN0aQUhK9-21" value="" style="shape=tableRow;horizontal=0;startSize=0;swimlaneHead=0;swimlaneBody=0;fillColor=none;collapsible=0;dropTarget=0;points=[[0,0.5],[1,0.5]];portConstraint=eastwest;top=0;left=0;right=0;bottom=0;" vertex="1" parent="488EfA6CdoZYN0aQUhK9-17">
          <mxGeometry y="60" width="180" height="30" as="geometry" />
        </mxCell>
        <mxCell id="488EfA6CdoZYN0aQUhK9-22" value="" style="shape=partialRectangle;connectable=0;fillColor=none;top=0;left=0;bottom=0;right=0;editable=1;overflow=hidden;whiteSpace=wrap;html=1;" vertex="1" parent="488EfA6CdoZYN0aQUhK9-21">
          <mxGeometry width="30" height="30" as="geometry">
            <mxRectangle width="30" height="30" as="alternateBounds" />
          </mxGeometry>
        </mxCell>
        <mxCell id="488EfA6CdoZYN0aQUhK9-23" value="name" style="shape=partialRectangle;connectable=0;fillColor=none;top=0;left=0;bottom=0;right=0;align=left;spacingLeft=6;overflow=hidden;whiteSpace=wrap;html=1;" vertex="1" parent="488EfA6CdoZYN0aQUhK9-21">
          <mxGeometry x="30" width="150" height="30" as="geometry">
            <mxRectangle width="150" height="30" as="alternateBounds" />
          </mxGeometry>
        </mxCell>
        <mxCell id="488EfA6CdoZYN0aQUhK9-24" value="" style="shape=tableRow;horizontal=0;startSize=0;swimlaneHead=0;swimlaneBody=0;fillColor=none;collapsible=0;dropTarget=0;points=[[0,0.5],[1,0.5]];portConstraint=eastwest;top=0;left=0;right=0;bottom=0;" vertex="1" parent="488EfA6CdoZYN0aQUhK9-17">
          <mxGeometry y="90" width="180" height="30" as="geometry" />
        </mxCell>
        <mxCell id="488EfA6CdoZYN0aQUhK9-25" value="" style="shape=partialRectangle;connectable=0;fillColor=none;top=0;left=0;bottom=0;right=0;editable=1;overflow=hidden;whiteSpace=wrap;html=1;" vertex="1" parent="488EfA6CdoZYN0aQUhK9-24">
          <mxGeometry width="30" height="30" as="geometry">
            <mxRectangle width="30" height="30" as="alternateBounds" />
          </mxGeometry>
        </mxCell>
        <mxCell id="488EfA6CdoZYN0aQUhK9-26" value="author" style="shape=partialRectangle;connectable=0;fillColor=none;top=0;left=0;bottom=0;right=0;align=left;spacingLeft=6;overflow=hidden;whiteSpace=wrap;html=1;" vertex="1" parent="488EfA6CdoZYN0aQUhK9-24">
          <mxGeometry x="30" width="150" height="30" as="geometry">
            <mxRectangle width="150" height="30" as="alternateBounds" />
          </mxGeometry>
        </mxCell>
        <mxCell id="488EfA6CdoZYN0aQUhK9-27" value="" style="shape=tableRow;horizontal=0;startSize=0;swimlaneHead=0;swimlaneBody=0;fillColor=none;collapsible=0;dropTarget=0;points=[[0,0.5],[1,0.5]];portConstraint=eastwest;top=0;left=0;right=0;bottom=0;" vertex="1" parent="488EfA6CdoZYN0aQUhK9-17">
          <mxGeometry y="120" width="180" height="30" as="geometry" />
        </mxCell>
        <mxCell id="488EfA6CdoZYN0aQUhK9-28" value="" style="shape=partialRectangle;connectable=0;fillColor=none;top=0;left=0;bottom=0;right=0;editable=1;overflow=hidden;whiteSpace=wrap;html=1;" vertex="1" parent="488EfA6CdoZYN0aQUhK9-27">
          <mxGeometry width="30" height="30" as="geometry">
            <mxRectangle width="30" height="30" as="alternateBounds" />
          </mxGeometry>
        </mxCell>
        <mxCell id="488EfA6CdoZYN0aQUhK9-29" value="description" style="shape=partialRectangle;connectable=0;fillColor=none;top=0;left=0;bottom=0;right=0;align=left;spacingLeft=6;overflow=hidden;whiteSpace=wrap;html=1;" vertex="1" parent="488EfA6CdoZYN0aQUhK9-27">
          <mxGeometry x="30" width="150" height="30" as="geometry">
            <mxRectangle width="150" height="30" as="alternateBounds" />
          </mxGeometry>
        </mxCell>
        <mxCell id="488EfA6CdoZYN0aQUhK9-44" value="" style="shape=tableRow;horizontal=0;startSize=0;swimlaneHead=0;swimlaneBody=0;fillColor=none;collapsible=0;dropTarget=0;points=[[0,0.5],[1,0.5]];portConstraint=eastwest;top=0;left=0;right=0;bottom=0;" vertex="1" parent="488EfA6CdoZYN0aQUhK9-17">
          <mxGeometry y="150" width="180" height="30" as="geometry" />
        </mxCell>
        <mxCell id="488EfA6CdoZYN0aQUhK9-45" value="" style="shape=partialRectangle;connectable=0;fillColor=none;top=0;left=0;bottom=0;right=0;editable=1;overflow=hidden;whiteSpace=wrap;html=1;" vertex="1" parent="488EfA6CdoZYN0aQUhK9-44">
          <mxGeometry width="30" height="30" as="geometry">
            <mxRectangle width="30" height="30" as="alternateBounds" />
          </mxGeometry>
        </mxCell>
        <mxCell id="488EfA6CdoZYN0aQUhK9-46" value="year of publication" style="shape=partialRectangle;connectable=0;fillColor=none;top=0;left=0;bottom=0;right=0;align=left;spacingLeft=6;overflow=hidden;whiteSpace=wrap;html=1;" vertex="1" parent="488EfA6CdoZYN0aQUhK9-44">
          <mxGeometry x="30" width="150" height="30" as="geometry">
            <mxRectangle width="150" height="30" as="alternateBounds" />
          </mxGeometry>
        </mxCell>
        <mxCell id="488EfA6CdoZYN0aQUhK9-47" value="" style="shape=tableRow;horizontal=0;startSize=0;swimlaneHead=0;swimlaneBody=0;fillColor=none;collapsible=0;dropTarget=0;points=[[0,0.5],[1,0.5]];portConstraint=eastwest;top=0;left=0;right=0;bottom=0;" vertex="1" parent="488EfA6CdoZYN0aQUhK9-17">
          <mxGeometry y="180" width="180" height="30" as="geometry" />
        </mxCell>
        <mxCell id="488EfA6CdoZYN0aQUhK9-48" value="" style="shape=partialRectangle;connectable=0;fillColor=none;top=0;left=0;bottom=0;right=0;editable=1;overflow=hidden;whiteSpace=wrap;html=1;" vertex="1" parent="488EfA6CdoZYN0aQUhK9-47">
          <mxGeometry width="30" height="30" as="geometry">
            <mxRectangle width="30" height="30" as="alternateBounds" />
          </mxGeometry>
        </mxCell>
        <mxCell id="488EfA6CdoZYN0aQUhK9-49" value="price" style="shape=partialRectangle;connectable=0;fillColor=none;top=0;left=0;bottom=0;right=0;align=left;spacingLeft=6;overflow=hidden;whiteSpace=wrap;html=1;" vertex="1" parent="488EfA6CdoZYN0aQUhK9-47">
          <mxGeometry x="30" width="150" height="30" as="geometry">
            <mxRectangle width="150" height="30" as="alternateBounds" />
          </mxGeometry>
        </mxCell>
        <mxCell id="488EfA6CdoZYN0aQUhK9-51" value="add to cart" style="shape=table;startSize=30;container=1;collapsible=1;childLayout=tableLayout;fixedRows=1;rowLines=0;fontStyle=1;align=center;resizeLast=1;html=1;" vertex="1" parent="1">
          <mxGeometry x="170" y="520" width="180" height="150" as="geometry" />
        </mxCell>
        <mxCell id="488EfA6CdoZYN0aQUhK9-52" value="" style="shape=tableRow;horizontal=0;startSize=0;swimlaneHead=0;swimlaneBody=0;fillColor=none;collapsible=0;dropTarget=0;points=[[0,0.5],[1,0.5]];portConstraint=eastwest;top=0;left=0;right=0;bottom=1;" vertex="1" parent="488EfA6CdoZYN0aQUhK9-51">
          <mxGeometry y="30" width="180" height="30" as="geometry" />
        </mxCell>
        <mxCell id="488EfA6CdoZYN0aQUhK9-53" value="PK" style="shape=partialRectangle;connectable=0;fillColor=none;top=0;left=0;bottom=0;right=0;fontStyle=1;overflow=hidden;whiteSpace=wrap;html=1;" vertex="1" parent="488EfA6CdoZYN0aQUhK9-52">
          <mxGeometry width="30" height="30" as="geometry">
            <mxRectangle width="30" height="30" as="alternateBounds" />
          </mxGeometry>
        </mxCell>
        <mxCell id="488EfA6CdoZYN0aQUhK9-54" value="cart_id" style="shape=partialRectangle;connectable=0;fillColor=none;top=0;left=0;bottom=0;right=0;align=left;spacingLeft=6;fontStyle=5;overflow=hidden;whiteSpace=wrap;html=1;" vertex="1" parent="488EfA6CdoZYN0aQUhK9-52">
          <mxGeometry x="30" width="150" height="30" as="geometry">
            <mxRectangle width="150" height="30" as="alternateBounds" />
          </mxGeometry>
        </mxCell>
        <mxCell id="488EfA6CdoZYN0aQUhK9-55" value="" style="shape=tableRow;horizontal=0;startSize=0;swimlaneHead=0;swimlaneBody=0;fillColor=none;collapsible=0;dropTarget=0;points=[[0,0.5],[1,0.5]];portConstraint=eastwest;top=0;left=0;right=0;bottom=0;" vertex="1" parent="488EfA6CdoZYN0aQUhK9-51">
          <mxGeometry y="60" width="180" height="30" as="geometry" />
        </mxCell>
        <mxCell id="488EfA6CdoZYN0aQUhK9-56" value="FK" style="shape=partialRectangle;connectable=0;fillColor=none;top=0;left=0;bottom=0;right=0;editable=1;overflow=hidden;whiteSpace=wrap;html=1;" vertex="1" parent="488EfA6CdoZYN0aQUhK9-55">
          <mxGeometry width="30" height="30" as="geometry">
            <mxRectangle width="30" height="30" as="alternateBounds" />
          </mxGeometry>
        </mxCell>
        <mxCell id="488EfA6CdoZYN0aQUhK9-57" value="user_id" style="shape=partialRectangle;connectable=0;fillColor=none;top=0;left=0;bottom=0;right=0;align=left;spacingLeft=6;overflow=hidden;whiteSpace=wrap;html=1;" vertex="1" parent="488EfA6CdoZYN0aQUhK9-55">
          <mxGeometry x="30" width="150" height="30" as="geometry">
            <mxRectangle width="150" height="30" as="alternateBounds" />
          </mxGeometry>
        </mxCell>
        <mxCell id="488EfA6CdoZYN0aQUhK9-58" value="" style="shape=tableRow;horizontal=0;startSize=0;swimlaneHead=0;swimlaneBody=0;fillColor=none;collapsible=0;dropTarget=0;points=[[0,0.5],[1,0.5]];portConstraint=eastwest;top=0;left=0;right=0;bottom=0;" vertex="1" parent="488EfA6CdoZYN0aQUhK9-51">
          <mxGeometry y="90" width="180" height="30" as="geometry" />
        </mxCell>
        <mxCell id="488EfA6CdoZYN0aQUhK9-59" value="FK" style="shape=partialRectangle;connectable=0;fillColor=none;top=0;left=0;bottom=0;right=0;editable=1;overflow=hidden;whiteSpace=wrap;html=1;" vertex="1" parent="488EfA6CdoZYN0aQUhK9-58">
          <mxGeometry width="30" height="30" as="geometry">
            <mxRectangle width="30" height="30" as="alternateBounds" />
          </mxGeometry>
        </mxCell>
        <mxCell id="488EfA6CdoZYN0aQUhK9-60" value="book_id" style="shape=partialRectangle;connectable=0;fillColor=none;top=0;left=0;bottom=0;right=0;align=left;spacingLeft=6;overflow=hidden;whiteSpace=wrap;html=1;" vertex="1" parent="488EfA6CdoZYN0aQUhK9-58">
          <mxGeometry x="30" width="150" height="30" as="geometry">
            <mxRectangle width="150" height="30" as="alternateBounds" />
          </mxGeometry>
        </mxCell>
        <mxCell id="488EfA6CdoZYN0aQUhK9-61" value="" style="shape=tableRow;horizontal=0;startSize=0;swimlaneHead=0;swimlaneBody=0;fillColor=none;collapsible=0;dropTarget=0;points=[[0,0.5],[1,0.5]];portConstraint=eastwest;top=0;left=0;right=0;bottom=0;" vertex="1" parent="488EfA6CdoZYN0aQUhK9-51">
          <mxGeometry y="120" width="180" height="30" as="geometry" />
        </mxCell>
        <mxCell id="488EfA6CdoZYN0aQUhK9-62" value="" style="shape=partialRectangle;connectable=0;fillColor=none;top=0;left=0;bottom=0;right=0;editable=1;overflow=hidden;whiteSpace=wrap;html=1;" vertex="1" parent="488EfA6CdoZYN0aQUhK9-61">
          <mxGeometry width="30" height="30" as="geometry">
            <mxRectangle width="30" height="30" as="alternateBounds" />
          </mxGeometry>
        </mxCell>
        <mxCell id="488EfA6CdoZYN0aQUhK9-63" value="quantity" style="shape=partialRectangle;connectable=0;fillColor=none;top=0;left=0;bottom=0;right=0;align=left;spacingLeft=6;overflow=hidden;whiteSpace=wrap;html=1;" vertex="1" parent="488EfA6CdoZYN0aQUhK9-61">
          <mxGeometry x="30" width="150" height="30" as="geometry">
            <mxRectangle width="150" height="30" as="alternateBounds" />
          </mxGeometry>
        </mxCell>
        <mxCell id="488EfA6CdoZYN0aQUhK9-64" value="" style="edgeStyle=entityRelationEdgeStyle;fontSize=12;html=1;endArrow=ERmandOne;startArrow=ERmandOne;rounded=0;exitX=0.303;exitY=-0.021;exitDx=0;exitDy=0;entryX=0;entryY=0.5;entryDx=0;entryDy=0;exitPerimeter=0;" edge="1" parent="1" source="488EfA6CdoZYN0aQUhK9-51" target="488EfA6CdoZYN0aQUhK9-8">
          <mxGeometry width="100" height="100" relative="1" as="geometry">
            <mxPoint x="170" y="490" as="sourcePoint" />
            <mxPoint x="271.81999999999994" y="432.39999999999986" as="targetPoint" />
          </mxGeometry>
        </mxCell>
        <mxCell id="488EfA6CdoZYN0aQUhK9-65" value="" style="edgeStyle=entityRelationEdgeStyle;fontSize=12;html=1;endArrow=ERoneToMany;rounded=0;exitX=1;exitY=0.5;exitDx=0;exitDy=0;entryX=0;entryY=0.5;entryDx=0;entryDy=0;" edge="1" parent="1" source="488EfA6CdoZYN0aQUhK9-52" target="488EfA6CdoZYN0aQUhK9-24">
          <mxGeometry width="100" height="100" relative="1" as="geometry">
            <mxPoint x="530" y="305" as="sourcePoint" />
            <mxPoint x="775" y="280" as="targetPoint" />
            <Array as="points">
              <mxPoint x="560" y="330" />
              <mxPoint x="575" y="325" />
              <mxPoint x="665" y="315" />
              <mxPoint x="565" y="375" />
              <mxPoint x="535" y="305" />
            </Array>
          </mxGeometry>
        </mxCell>
        <mxCell id="488EfA6CdoZYN0aQUhK9-66" value="order table" style="shape=table;startSize=30;container=1;collapsible=1;childLayout=tableLayout;fixedRows=1;rowLines=0;fontStyle=1;align=center;resizeLast=1;html=1;" vertex="1" parent="1">
          <mxGeometry x="120" y="140" width="180" height="120" as="geometry" />
        </mxCell>
        <mxCell id="488EfA6CdoZYN0aQUhK9-67" value="" style="shape=tableRow;horizontal=0;startSize=0;swimlaneHead=0;swimlaneBody=0;fillColor=none;collapsible=0;dropTarget=0;points=[[0,0.5],[1,0.5]];portConstraint=eastwest;top=0;left=0;right=0;bottom=1;" vertex="1" parent="488EfA6CdoZYN0aQUhK9-66">
          <mxGeometry y="30" width="180" height="30" as="geometry" />
        </mxCell>
        <mxCell id="488EfA6CdoZYN0aQUhK9-68" value="PK" style="shape=partialRectangle;connectable=0;fillColor=none;top=0;left=0;bottom=0;right=0;fontStyle=1;overflow=hidden;whiteSpace=wrap;html=1;" vertex="1" parent="488EfA6CdoZYN0aQUhK9-67">
          <mxGeometry width="30" height="30" as="geometry">
            <mxRectangle width="30" height="30" as="alternateBounds" />
          </mxGeometry>
        </mxCell>
        <mxCell id="488EfA6CdoZYN0aQUhK9-69" value="order_id" style="shape=partialRectangle;connectable=0;fillColor=none;top=0;left=0;bottom=0;right=0;align=left;spacingLeft=6;fontStyle=5;overflow=hidden;whiteSpace=wrap;html=1;" vertex="1" parent="488EfA6CdoZYN0aQUhK9-67">
          <mxGeometry x="30" width="150" height="30" as="geometry">
            <mxRectangle width="150" height="30" as="alternateBounds" />
          </mxGeometry>
        </mxCell>
        <mxCell id="488EfA6CdoZYN0aQUhK9-70" value="" style="shape=tableRow;horizontal=0;startSize=0;swimlaneHead=0;swimlaneBody=0;fillColor=none;collapsible=0;dropTarget=0;points=[[0,0.5],[1,0.5]];portConstraint=eastwest;top=0;left=0;right=0;bottom=0;" vertex="1" parent="488EfA6CdoZYN0aQUhK9-66">
          <mxGeometry y="60" width="180" height="30" as="geometry" />
        </mxCell>
        <mxCell id="488EfA6CdoZYN0aQUhK9-71" value="FK" style="shape=partialRectangle;connectable=0;fillColor=none;top=0;left=0;bottom=0;right=0;editable=1;overflow=hidden;whiteSpace=wrap;html=1;" vertex="1" parent="488EfA6CdoZYN0aQUhK9-70">
          <mxGeometry width="30" height="30" as="geometry">
            <mxRectangle width="30" height="30" as="alternateBounds" />
          </mxGeometry>
        </mxCell>
        <mxCell id="488EfA6CdoZYN0aQUhK9-72" value="user_id" style="shape=partialRectangle;connectable=0;fillColor=none;top=0;left=0;bottom=0;right=0;align=left;spacingLeft=6;overflow=hidden;whiteSpace=wrap;html=1;" vertex="1" parent="488EfA6CdoZYN0aQUhK9-70">
          <mxGeometry x="30" width="150" height="30" as="geometry">
            <mxRectangle width="150" height="30" as="alternateBounds" />
          </mxGeometry>
        </mxCell>
        <mxCell id="488EfA6CdoZYN0aQUhK9-73" value="" style="shape=tableRow;horizontal=0;startSize=0;swimlaneHead=0;swimlaneBody=0;fillColor=none;collapsible=0;dropTarget=0;points=[[0,0.5],[1,0.5]];portConstraint=eastwest;top=0;left=0;right=0;bottom=0;" vertex="1" parent="488EfA6CdoZYN0aQUhK9-66">
          <mxGeometry y="90" width="180" height="30" as="geometry" />
        </mxCell>
        <mxCell id="488EfA6CdoZYN0aQUhK9-74" value="FK" style="shape=partialRectangle;connectable=0;fillColor=none;top=0;left=0;bottom=0;right=0;editable=1;overflow=hidden;whiteSpace=wrap;html=1;" vertex="1" parent="488EfA6CdoZYN0aQUhK9-73">
          <mxGeometry width="30" height="30" as="geometry">
            <mxRectangle width="30" height="30" as="alternateBounds" />
          </mxGeometry>
        </mxCell>
        <mxCell id="488EfA6CdoZYN0aQUhK9-75" value="cart_id" style="shape=partialRectangle;connectable=0;fillColor=none;top=0;left=0;bottom=0;right=0;align=left;spacingLeft=6;overflow=hidden;whiteSpace=wrap;html=1;" vertex="1" parent="488EfA6CdoZYN0aQUhK9-73">
          <mxGeometry x="30" width="150" height="30" as="geometry">
            <mxRectangle width="150" height="30" as="alternateBounds" />
          </mxGeometry>
        </mxCell>
        <mxCell id="488EfA6CdoZYN0aQUhK9-79" value="" style="edgeStyle=entityRelationEdgeStyle;fontSize=12;html=1;endArrow=ERmandOne;startArrow=ERmandOne;rounded=0;entryX=1;entryY=0.5;entryDx=0;entryDy=0;exitX=0.567;exitY=-0.017;exitDx=0;exitDy=0;exitPerimeter=0;" edge="1" parent="1" source="488EfA6CdoZYN0aQUhK9-1" target="488EfA6CdoZYN0aQUhK9-67">
          <mxGeometry width="100" height="100" relative="1" as="geometry">
            <mxPoint x="370" y="490" as="sourcePoint" />
            <mxPoint x="470" y="390" as="targetPoint" />
          </mxGeometry>
        </mxCell>
        <mxCell id="488EfA6CdoZYN0aQUhK9-80" value="query table" style="shape=table;startSize=30;container=1;collapsible=1;childLayout=tableLayout;fixedRows=1;rowLines=0;fontStyle=1;align=center;resizeLast=1;html=1;" vertex="1" parent="1">
          <mxGeometry x="570" y="105" width="180" height="120" as="geometry" />
        </mxCell>
        <mxCell id="488EfA6CdoZYN0aQUhK9-81" value="" style="shape=tableRow;horizontal=0;startSize=0;swimlaneHead=0;swimlaneBody=0;fillColor=none;collapsible=0;dropTarget=0;points=[[0,0.5],[1,0.5]];portConstraint=eastwest;top=0;left=0;right=0;bottom=1;" vertex="1" parent="488EfA6CdoZYN0aQUhK9-80">
          <mxGeometry y="30" width="180" height="30" as="geometry" />
        </mxCell>
        <mxCell id="488EfA6CdoZYN0aQUhK9-82" value="PK" style="shape=partialRectangle;connectable=0;fillColor=none;top=0;left=0;bottom=0;right=0;fontStyle=1;overflow=hidden;whiteSpace=wrap;html=1;" vertex="1" parent="488EfA6CdoZYN0aQUhK9-81">
          <mxGeometry width="30" height="30" as="geometry">
            <mxRectangle width="30" height="30" as="alternateBounds" />
          </mxGeometry>
        </mxCell>
        <mxCell id="488EfA6CdoZYN0aQUhK9-83" value="query_id" style="shape=partialRectangle;connectable=0;fillColor=none;top=0;left=0;bottom=0;right=0;align=left;spacingLeft=6;fontStyle=5;overflow=hidden;whiteSpace=wrap;html=1;" vertex="1" parent="488EfA6CdoZYN0aQUhK9-81">
          <mxGeometry x="30" width="150" height="30" as="geometry">
            <mxRectangle width="150" height="30" as="alternateBounds" />
          </mxGeometry>
        </mxCell>
        <mxCell id="488EfA6CdoZYN0aQUhK9-84" value="" style="shape=tableRow;horizontal=0;startSize=0;swimlaneHead=0;swimlaneBody=0;fillColor=none;collapsible=0;dropTarget=0;points=[[0,0.5],[1,0.5]];portConstraint=eastwest;top=0;left=0;right=0;bottom=0;" vertex="1" parent="488EfA6CdoZYN0aQUhK9-80">
          <mxGeometry y="60" width="180" height="30" as="geometry" />
        </mxCell>
        <mxCell id="488EfA6CdoZYN0aQUhK9-85" value="" style="shape=partialRectangle;connectable=0;fillColor=none;top=0;left=0;bottom=0;right=0;editable=1;overflow=hidden;whiteSpace=wrap;html=1;" vertex="1" parent="488EfA6CdoZYN0aQUhK9-84">
          <mxGeometry width="30" height="30" as="geometry">
            <mxRectangle width="30" height="30" as="alternateBounds" />
          </mxGeometry>
        </mxCell>
        <mxCell id="488EfA6CdoZYN0aQUhK9-86" value="user_id" style="shape=partialRectangle;connectable=0;fillColor=none;top=0;left=0;bottom=0;right=0;align=left;spacingLeft=6;overflow=hidden;whiteSpace=wrap;html=1;" vertex="1" parent="488EfA6CdoZYN0aQUhK9-84">
          <mxGeometry x="30" width="150" height="30" as="geometry">
            <mxRectangle width="150" height="30" as="alternateBounds" />
          </mxGeometry>
        </mxCell>
        <mxCell id="488EfA6CdoZYN0aQUhK9-87" value="" style="shape=tableRow;horizontal=0;startSize=0;swimlaneHead=0;swimlaneBody=0;fillColor=none;collapsible=0;dropTarget=0;points=[[0,0.5],[1,0.5]];portConstraint=eastwest;top=0;left=0;right=0;bottom=0;" vertex="1" parent="488EfA6CdoZYN0aQUhK9-80">
          <mxGeometry y="90" width="180" height="30" as="geometry" />
        </mxCell>
        <mxCell id="488EfA6CdoZYN0aQUhK9-88" value="" style="shape=partialRectangle;connectable=0;fillColor=none;top=0;left=0;bottom=0;right=0;editable=1;overflow=hidden;whiteSpace=wrap;html=1;" vertex="1" parent="488EfA6CdoZYN0aQUhK9-87">
          <mxGeometry width="30" height="30" as="geometry">
            <mxRectangle width="30" height="30" as="alternateBounds" />
          </mxGeometry>
        </mxCell>
        <mxCell id="488EfA6CdoZYN0aQUhK9-89" value="query/ feedback" style="shape=partialRectangle;connectable=0;fillColor=none;top=0;left=0;bottom=0;right=0;align=left;spacingLeft=6;overflow=hidden;whiteSpace=wrap;html=1;" vertex="1" parent="488EfA6CdoZYN0aQUhK9-87">
          <mxGeometry x="30" width="150" height="30" as="geometry">
            <mxRectangle width="150" height="30" as="alternateBounds" />
          </mxGeometry>
        </mxCell>
      </root>
    </mxGraphModel>
  </diagram>
</mxfile>
